<?xml version="1.0" encoding="UTF-8"?>
<svg width="16px" height="16px" viewBox="0 0 16 16" version="1.1" xmlns="http://www.w3.org/2000/svg" xmlns:xlink="http://www.w3.org/1999/xlink">
    <!-- Generator: Sketch 49.2 (51160) - http://www.bohemiancoding.com/sketch -->
    <title>Copy_default</title>
    <desc>Created with Sketch.</desc>
    <defs></defs>
    <g id="Wireframes" stroke="none" stroke-width="1" fill="none" fill-rule="evenodd">
        <g id="Wordpress_MapBuilder_Saved" transform="translate(-521.000000, -565.000000)" fill="#3F454C" fill-rule="nonzero">
            <g id="Inputs" transform="translate(160.000000, 30.000000)">
                <g id="Section-2" transform="translate(34.000000, 530.000000)">
                    <g id="Snippet">
                        <path d="M331.455988,9.45598846 L331.455988,7.30880231 C331.455988,6.033686 332.489674,5 333.764791,5 L340.691198,5 C341.966314,5 343,6.033686 343,7.30880231 L343,14.2352092 C343,15.5103255 341.966314,16.5440115 340.691198,16.5440115 C340.076002,16.5440115 339.614606,16.5440115 339.307008,16.5440115 L338.544012,16.5440115 L338.544012,18.6911977 C338.544012,19.966314 337.510326,21 336.235209,21 L329.308802,21 C328.033686,21 327,19.966314 327,18.6911977 L327,11.7647908 C327,10.4896745 328.033686,9.45598846 329.308802,9.45598846 L331.455988,9.45598846 Z M332.379509,9.45598846 L336.235209,9.45598846 C337.510326,9.45598846 338.544012,10.4896745 338.544012,11.7647908 L338.544012,15.6204906 L340.691198,15.6204906 C341.456267,15.6204906 342.076479,15.000279 342.076479,14.2352092 L342.076479,7.30880231 C342.076479,6.54373253 341.456267,5.92352092 340.691198,5.92352092 L333.764791,5.92352092 C332.999721,5.92352092 332.379509,6.54373253 332.379509,7.30880231 L332.379509,9.45598846 Z M329.308802,10.3795094 C328.543733,10.3795094 327.923521,10.999721 327.923521,11.7647908 L327.923521,18.6911977 C327.923521,19.4562675 328.543733,20.0764791 329.308802,20.0764791 L336.235209,20.0764791 C337.000279,20.0764791 337.620491,19.4562675 337.620491,18.6911977 L337.620491,11.7647908 C337.620491,10.999721 337.000279,10.3795094 336.235209,10.3795094 L329.308802,10.3795094 Z" id="Copy_default"></path>
                    </g>
                </g>
            </g>
        </g>
    </g>
</svg>