<?xml version="1.0" encoding="UTF-8"?>
<svg width="16px" height="16px" viewBox="0 0 16 16" version="1.1" xmlns="http://www.w3.org/2000/svg" xmlns:xlink="http://www.w3.org/1999/xlink">
    <!-- Generator: Sketch 49.2 (51160) - http://www.bohemiancoding.com/sketch -->
    <title>Copy_hover</title>
    <desc>Created with Sketch.</desc>
    <defs></defs>
    <g id="Wireframes" stroke="none" stroke-width="1" fill="none" fill-rule="evenodd">
        <g id="Wordpress_MapBuilder_Saved" transform="translate(-521.000000, -644.000000)" fill="#3F454C">
            <g id="Inputs" transform="translate(160.000000, 30.000000)">
                <g id="Section-2" transform="translate(34.000000, 530.000000)">
                    <path d="M338.53082,94.6977407 L338.53082,90.8019821 C338.53082,89.513618 337.486394,88.4691925 336.19803,88.4691925 L332.302272,88.4691925 L332.302272,86.2996982 C332.302272,85.5266797 332.928927,84.9000244 333.701945,84.9000244 L340.700314,84.9000244 C341.473333,84.9000244 342.099988,85.5266797 342.099988,86.2996982 L342.099988,93.2980669 C342.099988,94.0710854 341.473333,94.6977407 340.700314,94.6977407 L338.53082,94.6977407 Z M329.199662,89.4023083 L336.19803,89.4023083 C336.971049,89.4023083 337.597704,90.0289636 337.597704,90.8019821 L337.597704,97.8003509 C337.597704,98.5733693 336.971049,99.2000246 336.19803,99.2000246 L329.199662,99.2000246 C328.426643,99.2000246 327.799988,98.5733693 327.799988,97.8003509 L327.799988,90.8019821 C327.799988,90.0289636 328.426643,89.4023083 329.199662,89.4023083 Z" id="Copy_hover"></path>
                </g>
            </g>
        </g>
    </g>
</svg>