<?xml version="1.0" encoding="UTF-8"?>
<svg width="18px" height="18px" viewBox="0 0 18 18" version="1.1" xmlns="http://www.w3.org/2000/svg" xmlns:xlink="http://www.w3.org/1999/xlink">
    <!-- Generator: Sketch 49.2 (51160) - http://www.bohemiancoding.com/sketch -->
    <title>Logo_Tab</title>
    <desc>Created with Sketch.</desc>
    <defs>
        <linearGradient x1="92.7031367%" y1="7.50494306%" x2="7.6345868%" y2="82.9160948%" id="linearGradient-1">
            <stop stop-color="#447ED3" offset="0%"></stop>
            <stop stop-color="#2846CC" offset="100%"></stop>
        </linearGradient>
        <linearGradient x1="-7.68447829%" y1="105.029452%" x2="94.6044878%" y2="15.0940036%" id="linearGradient-2">
            <stop stop-color="#F95F9F" offset="0%"></stop>
            <stop stop-color="#E2508D" offset="100%"></stop>
        </linearGradient>
        <linearGradient x1="85.6985679%" y1="100%" x2="32.6346853%" y2="6.71062261%" id="linearGradient-3">
            <stop stop-color="#4CC4ED" offset="0%"></stop>
            <stop stop-color="#009EFF" offset="100%"></stop>
        </linearGradient>
        <linearGradient x1="11.9910237%" y1="-6.75069841%" x2="81.0470845%" y2="84.9576026%" id="linearGradient-4">
            <stop stop-color="#79EADE" offset="0%"></stop>
            <stop stop-color="#2CCAB9" offset="100%"></stop>
        </linearGradient>
    </defs>
    <g id="Wireframes" stroke="none" stroke-width="1" fill="none" fill-rule="evenodd">
        <g id="Wordpress_MapBuilder_ActivateNeeded" transform="translate(-11.000000, -597.000000)">
            <g id="Base">
                <g id="Title" transform="translate(11.000000, 590.000000)">
                    <g id="Logo_Tab" transform="translate(0.000000, 7.000000)">
                        <path d="M9.38994305,3.92024484 C10.819467,3.42146471 12.6860052,2.68538926 14.1131697,2.1797952 C14.4846234,2.04828624 15.7280834,1.64915993 16.1103235,1.5505282 C16.4197559,1.4706348 16.65992,1.56313398 16.8353662,1.83160307 C16.9112074,1.94778068 16.9715434,2.07928965 17.013846,2.21199105 C17.2637851,2.99474196 17.5066458,3.77970741 17.7505176,4.5645025 C17.7781576,4.65393541 17.8110221,4.7457532 17.8154041,4.83774134 C17.8251792,5.04011524 17.7491694,5.21472236 17.5668132,5.30773258 C17.4232204,5.38115275 17.2642907,5.42595438 17.1090689,5.47382228 C14.4630508,6.49012085 12.0816345,7.20916146 10.0388074,8.11558531 C9.97543776,8.14539629 9.91257377,8.17708109 9.84684465,8.20024847 C9.62218592,8.27894943 9.49039062,8.22528969 9.38926891,8.01831638 C9.3789882,7.99719317 9.36786481,7.97624032 9.36011215,7.95409503 C8.97854622,6.86880535 8.69810201,5.7537047 8.36625426,4.63468604 C8.681754,4.25804572 9.00180422,4.05567182 9.38994305,3.92024484 Z" id="Fill-27" fill="url(#linearGradient-1)"></path>
                        <path d="M9.49972753,13.1252082 C9.11535266,13.2915818 8.83086358,13.4109392 8.64626028,13.4832805 C7.1727484,14.0600802 5.69873092,14.6353468 4.22336514,15.2072064 C3.91966294,15.3247468 3.61427537,15.4426279 3.30113513,15.5284835 C2.94754621,15.6254117 2.69811266,15.5223509 2.55738494,15.1889791 C2.348063,14.6934356 2.15138127,14.1880119 2.00542893,13.6706638 C1.87177974,13.1965842 1.98469898,12.9834783 2.41412918,12.742776 C2.69794412,12.5836706 2.99642171,12.4485843 3.29641612,12.3225265 C4.24072437,11.9259554 5.18553823,11.5300657 6.13675647,11.1510405 C6.80685634,10.8839343 7.48723693,10.6427209 8.16458386,10.3941826 C8.29250282,10.3471664 8.42750031,10.3197403 8.65485562,10.2568818 C8.84990817,10.9190828 9.13153214,11.8751916 9.49972753,13.1252082 Z" id="Fill-28" fill="url(#linearGradient-2)"></path>
                        <path d="M14.6321769,13.4680344 C13.83163,13.7891411 13.0302404,14.1080333 12.2288508,14.4267552 C12.1423918,14.4611655 12.0555956,14.5001753 11.9654288,14.5182323 C11.7874546,14.5538351 11.6256598,14.4909765 11.5456051,14.3344263 C11.4395959,14.1271123 11.3592041,13.9034449 11.291284,13.6796071 C10.9225269,12.4631491 10.5605111,11.2448173 10.1981583,10.0263152 C10.1722038,9.93926718 10.1629343,9.84727904 10.147766,9.76704495 C10.5493877,9.49039914 12.5244633,8.60714267 13.4352329,8.29489404 C13.4842769,8.35996713 13.5604552,8.42418848 13.589612,8.50561502 C14.088142,9.90144984 14.5822901,11.2988178 15.0725619,12.6977189 C15.1177296,12.8265023 15.1293586,12.96721 15.1507627,13.0740185 C15.0252032,13.3140394 14.8268362,13.3900148 14.6321769,13.4680344 Z" id="Fill-29" fill="url(#linearGradient-3)"></path>
                        <path d="M8.16530856,8.8554425 C7.69222749,9.18404457 7.12662005,9.33344012 6.59320302,9.5540413 C6.08085301,9.76595472 5.57069398,9.98297858 5.01958065,10.2144821 C4.93329012,9.97156524 4.85475226,9.77924189 4.79643874,9.58061565 C4.49206239,8.54404562 4.19611284,7.50492036 3.88903991,6.46903172 C3.82246812,6.24451252 3.71157131,6.0336212 3.63960636,5.81029444 C3.50915935,5.40588733 3.59561841,5.12890083 3.93791541,4.8916055 C4.08942944,4.78667089 4.26689804,4.71887222 4.43543423,4.64000091 C4.81430357,4.46283857 5.19671218,4.29351226 5.5740647,4.1131133 C5.86596938,3.97359796 6.13781824,3.77020197 6.53017049,3.86304185 C7.07690187,4.98700061 8.09755702,8.09960663 8.16530856,8.8554425 Z" id="Fill-30" fill="url(#linearGradient-4)"></path>
                        <path d="M3.83397914,10.5446854 C3.65010616,10.7807883 3.38280777,10.9145118 3.10320624,11.0342667 C2.7192808,11.1989936 2.33889463,11.3722379 1.95614895,11.5402015 C1.84980262,11.5867066 1.74311921,11.6347448 1.63289655,11.6694959 C1.29616125,11.7759637 1.12358019,11.7091871 0.928920898,11.4003454 C0.879202723,11.3214741 0.829484548,11.2393662 0.798473889,11.1519775 C0.539433771,10.423738 0.266910758,9.69941663 0.0353420382,8.96214874 C-0.103531779,8.51958359 0.18331681,7.9209793 0.604320203,7.73666233 C1.24307235,7.45695025 1.8939591,7.20534566 2.54164366,6.94641608 C2.6028223,6.92188591 2.67731529,6.93091438 2.74203319,6.92461149 C3.11213865,7.51503905 3.80448531,9.80247741 3.83397914,10.5446854 Z" id="Fill-31" fill="#2846CC"></path>
                        <path d="M7.8452752,17.81013 C7.60376285,17.4004421 7.12528861,16.0308409 7.02197593,15.4821487 C7.51022526,15.1515024 8.96452401,14.5234279 9.77889086,14.2965238 C10.0566385,14.6786153 10.0633799,15.1668338 10.2197815,15.5978153 C10.3766887,16.0299892 10.545899,16.4672735 10.5578651,16.9767856 C9.65434262,17.324637 8.74593258,17.5752195 7.8452752,17.81013 Z" id="Fill-32" fill="#2CCAB9"></path>
                        <path d="M16.9368081,6.94629684 C17.1992189,7.18103694 17.2743861,7.48272396 17.355789,7.76635405 C17.5034267,8.28097658 17.5615717,8.8177444 17.800219,9.31141407 C17.9304974,9.58107559 17.8312296,9.73881821 17.5637627,9.87935565 C17.1521973,10.0956981 16.7421488,10.3147662 16.328561,10.5270203 C16.205361,10.5902195 16.0762623,10.6477973 15.9436243,10.6849332 C15.7282351,10.7452366 15.5590248,10.6777786 15.488071,10.4742123 C15.1889193,9.61463423 14.8269036,8.77532765 14.5917956,7.79735746 C15.4006007,7.4677333 16.1438453,7.15258876 16.9368081,6.94629684 Z" id="Fill-33" fill="#E2508D"></path>
                        <path d="M7.66876725,1.64294221 C7.61500421,1.45658106 7.72977735,1.31825815 7.88483064,1.24534904 C8.22139741,1.08743607 8.55830124,0.921516722 8.91087894,0.810279215 C9.24458059,0.705003902 9.56749593,0.591551865 9.87979348,0.429039488 C10.1248451,0.301448534 10.3961884,0.217466772 10.6639924,0.144216958 C10.8985947,0.0801659586 11.0737038,0.170450612 11.172466,0.402635486 C11.3642602,0.853547709 11.5361671,1.3131477 11.7271186,1.79693717 C11.6017277,1.89148053 11.5016172,1.98125414 11.3881923,2.04803071 C11.2890931,2.10663056 11.1763424,2.14376652 11.0671309,2.18294665 C10.1268675,2.52006614 9.18626707,2.8553118 8.15212903,3.22462713 C7.97988505,2.66520298 7.81623642,2.15654265 7.66876725,1.64294221 Z" id="Fill-34" fill="#009EFF"></path>
                    </g>
                </g>
            </g>
        </g>
    </g>
</svg>