<?xml version="1.0" encoding="UTF-8"?>
<svg width="35px" height="40px" viewBox="0 0 35 40" version="1.1" xmlns="http://www.w3.org/2000/svg" xmlns:xlink="http://www.w3.org/1999/xlink">
    <!-- Generator: Sketch 48.1 (47250) - http://www.bohemiancoding.com/sketch -->
    <title>active</title>
    <desc>Created with Sketch.</desc>
    <defs></defs>
    <g id="Page-1" stroke="none" stroke-width="1" fill="none" fill-rule="evenodd">
        <g id="active">
            <g id="Backing/Violet">
                <g id="Combined-Shape">
                    <g id="path-1-link" fill="#000000" fill-rule="nonzero">
                        <path d="M22.3835035,34.880747 L18.4721472,39.5665579 C17.9784185,40.1429832 17.1397664,40.1414843 16.6902363,39.5799464 L12.6489072,34.884156 C0.0855285177,34.7007641 2.51993271e-14,33.0095214 0,17.4531979 C-2.81117784e-14,0.106955195 0.247160721,0 17.5,0 C34.7528393,0 35,0.207884096 35,17.4531979 C35,32.9056961 34.9146186,34.6790391 22.3835131,34.8807468 L22.3835035,34.880747 Z" id="path-1"></path>
                    </g>
                    <g id="path-1-link" fill="#0955EC">
                        <path d="M22.3835035,34.880747 L18.4721472,39.5665579 C17.9784185,40.1429832 17.1397664,40.1414843 16.6902363,39.5799464 L12.6489072,34.884156 C0.0855285177,34.7007641 2.51993271e-14,33.0095214 0,17.4531979 C-2.81117784e-14,0.106955195 0.247160721,0 17.5,0 C34.7528393,0 35,0.207884096 35,17.4531979 C35,32.9056961 34.9146186,34.6790391 22.3835131,34.8807468 L22.3835035,34.880747 Z" id="path-1"></path>
                    </g>
                </g>
            </g>
            <g id="Icon/ActiveLife" transform="translate(10.000000, 11.000000)" fill="#FFFFFF" fill-rule="nonzero">
                <path d="M12.5722231,5.41438802 C13.9130472,5.41438802 15,4.31426479 15,2.95719401 C15,1.60012323 13.9130472,0.5 12.5722231,0.5 C11.2313989,0.5 10.1444462,1.60012323 10.1444462,2.95719401 C10.1444462,4.31426479 11.2313989,5.41438802 12.5722231,5.41438802 Z M2.55203495,5.46484375 C2.55203495,5.46484375 4.3965472,4.19840495 6.16129675,4.71809896 C6.4784831,4.81516872 6.77811938,4.96339469 7.04865669,5.1570638 L1.96877027,8.27018229 C3.2499585,9.3650716 4.59595392,8.89583333 6.72960592,8.07340495 C8.00115483,7.49478744 9.36977235,7.16603766 10.762607,7.10465495 C10.6479481,6.60009766 9.39168575,3.57275391 6.67476907,2.78059896 C3.95785239,1.98844401 1.49019412,3.73925781 1.38550559,3.78971354 C0.933975479,4.10877844 0.823494655,4.73790435 1.13873976,5.1949056 C1.45398487,5.65190685 2.075579,5.76372635 2.52710911,5.44466146 L2.55203495,5.46484375 Z M6.79939828,9.7838542 C4.38657686,10.7374674 2.84615988,11.2218424 1.34562424,9.4003906 C1.17965397,9.1768172 0.905401105,9.0640923 0.632410273,9.1072416 C0.359419442,9.1503908 0.132183954,9.3423815 0.0414683244,9.606527 C-0.0492473049,9.8706724 0.0113421766,10.163921 0.199035554,10.3691406 C1.01600414,11.4915977 2.31120613,12.1545364 3.68865331,12.1552734 C4.95599539,12.0647472 6.19620116,11.739823 7.34776678,11.1966146 C10.049728,10.1269531 11.889255,9.844401 13.3299686,11.5649414 C13.4959389,11.7885148 13.7701918,11.9012397 14.0431826,11.8580905 C14.3161734,11.8149412 14.5434089,11.6229505 14.6341246,11.3588051 C14.7248402,11.0946596 14.6642507,10.801411 14.4765573,10.5961914 C12.0437952,7.70003255 8.61399951,9.0572917 6.77447244,9.7888997 L6.79939828,9.7838542 Z" id="Shape"></path>
            </g>
        </g>
    </g>
</svg>