<?xml version="1.0" encoding="UTF-8"?>
<svg width="35px" height="40px" viewBox="0 0 35 40" version="1.1" xmlns="http://www.w3.org/2000/svg" xmlns:xlink="http://www.w3.org/1999/xlink">
    <!-- Generator: Sketch 48.1 (47250) - http://www.bohemiancoding.com/sketch -->
    <title>airport</title>
    <desc>Created with Sketch.</desc>
    <defs></defs>
    <g id="Page-1" stroke="none" stroke-width="1" fill="none" fill-rule="evenodd">
        <g id="airport">
            <g id="Backing/Violet">
                <g id="Combined-Shape">
                    <g id="path-1-link" fill="#000000" fill-rule="nonzero">
                        <path d="M22.3835035,34.880747 L18.4721472,39.5665579 C17.9784185,40.1429832 17.1397664,40.1414843 16.6902363,39.5799464 L12.6489072,34.884156 C0.0855285177,34.7007641 2.51993271e-14,33.0095214 0,17.4531979 C-2.81117784e-14,0.106955195 0.247160721,0 17.5,0 C34.7528393,0 35,0.207884096 35,17.4531979 C35,32.9056961 34.9146186,34.6790391 22.3835131,34.8807468 L22.3835035,34.880747 Z" id="path-1"></path>
                    </g>
                    <g id="path-1-link" fill="#0955EC">
                        <path d="M22.3835035,34.880747 L18.4721472,39.5665579 C17.9784185,40.1429832 17.1397664,40.1414843 16.6902363,39.5799464 L12.6489072,34.884156 C0.0855285177,34.7007641 2.51993271e-14,33.0095214 0,17.4531979 C-2.81117784e-14,0.106955195 0.247160721,0 17.5,0 C34.7528393,0 35,0.207884096 35,17.4531979 C35,32.9056961 34.9146186,34.6790391 22.3835131,34.8807468 L22.3835035,34.880747 Z" id="path-1"></path>
                    </g>
                </g>
            </g>
            <g id="Icon/Airports" transform="translate(10.000000, 11.000000)" fill="#FFFFFF" fill-rule="nonzero">
                <path d="M14.9471283,1.85215505 C14.6161596,1.02960061 13.2630819,0.75703819 11.7688558,1.21942086 C10.8300396,1.57511316 9.92310985,2.00985329 9.0578332,2.51895953 L3.3437568,0.22164773 C2.54110664,0.00986859 1.6862571,0.1496887 0.99290595,0.60615542 L0.681406044,0.81057724 C0.53888714,0.90380931 0.455464633,1.06475175 0.461436578,1.2349522 C0.467408524,1.40515265 0.561906192,1.55985229 0.71060916,1.64286605 L5.48531865,4.50963862 C4.73090482,4.92334943 4.08843626,5.25918527 3.56764736,5.59988829 L2.31678055,4.93795099 C1.83141853,4.68682224 1.25437741,4.68682224 0.769015393,4.93795099 L0.194687441,5.21051341 C0.0721288532,5.30243235 -5.40366199e-17,5.44669005 0,5.59988829 C5.40366199e-17,5.75308652 0.0721288532,5.89734423 0.194687441,5.98926317 L2.18049934,7.52242677 C2.65259554,7.88745629 3.26355062,8.02143766 3.84507696,7.88746572 C6.88240159,7.08058348 9.80738651,5.89849064 12.5524728,4.36849022 C14.4409409,3.20523276 15.2196907,2.51409235 14.9471283,1.85215505 Z M12.1582307,11.0998085 L3.39729585,11.0998085 C2.99408496,11.0998085 2.66721794,11.4266755 2.66721794,11.8298864 C2.66721794,12.2330973 2.99408496,12.5599643 3.39729585,12.5599643 L12.1582307,12.5599643 C12.5614416,12.5599643 12.8883086,12.2330973 12.8883086,11.8298864 C12.8883086,11.4266755 12.5614416,11.0998085 12.1582307,11.0998085 Z" id="Shape"></path>
            </g>
        </g>
    </g>
</svg>