<?xml version="1.0" encoding="UTF-8"?>
<svg width="35px" height="40px" viewBox="0 0 35 40" version="1.1" xmlns="http://www.w3.org/2000/svg" xmlns:xlink="http://www.w3.org/1999/xlink">
    <!-- Generator: Sketch 48.1 (47250) - http://www.bohemiancoding.com/sketch -->
    <title>arts</title>
    <desc>Created with Sketch.</desc>
    <defs></defs>
    <g id="Page-1" stroke="none" stroke-width="1" fill="none" fill-rule="evenodd">
        <g id="arts">
            <g id="Backing/Violet">
                <g id="Combined-Shape">
                    <g id="path-1-link" fill="#000000" fill-rule="nonzero">
                        <path d="M22.3835035,34.880747 L18.4721472,39.5665579 C17.9784185,40.1429832 17.1397664,40.1414843 16.6902363,39.5799464 L12.6489072,34.884156 C0.0855285177,34.7007641 2.51993271e-14,33.0095214 0,17.4531979 C-2.81117784e-14,0.106955195 0.247160721,0 17.5,0 C34.7528393,0 35,0.207884096 35,17.4531979 C35,32.9056961 34.9146186,34.6790391 22.3835131,34.8807468 L22.3835035,34.880747 Z" id="path-1"></path>
                    </g>
                    <g id="path-1-link" fill="#0955EC">
                        <path d="M22.3835035,34.880747 L18.4721472,39.5665579 C17.9784185,40.1429832 17.1397664,40.1414843 16.6902363,39.5799464 L12.6489072,34.884156 C0.0855285177,34.7007641 2.51993271e-14,33.0095214 0,17.4531979 C-2.81117784e-14,0.106955195 0.247160721,0 17.5,0 C34.7528393,0 35,0.207884096 35,17.4531979 C35,32.9056961 34.9146186,34.6790391 22.3835131,34.8807468 L22.3835035,34.880747 Z" id="path-1"></path>
                    </g>
                </g>
            </g>
            <g id="Icon/Arts" transform="translate(10.000000, 10.000000)" fill="#FFFFFF">
                <g id="Group">
                    <path d="M10.1449037,4.70149254 L10.1449037,5.56946642 C10.1449037,8.45205224 8.41046471,10.5741224 5.80363456,11.0606216 C6.16310074,13.2936627 8.06575588,15 10.3676471,15 C12.9118985,15 14.9751728,12.9177358 14.9978868,10.3409642 C14.9978868,10.3409642 14.9989217,7.57896237 14.9994392,6.19796146 C14.9978868,5.02078247 14.5048523,4.70149254 13.503695,4.70149254 L10.1449037,4.70149254 Z M8.38235294,12.5373134 C8.38235294,11.424497 9.27119559,10.5223881 10.3676471,10.5223881 C11.4640985,10.5223881 12.3529412,11.424497 12.3529412,12.5373134 L8.38235294,12.5373134 Z M12.1323529,8.50746269 C11.7668691,8.50746269 11.4705882,8.2067597 11.4705882,7.8358209 C11.4705882,7.46488209 11.7668691,7.1641791 12.1323529,7.1641791 C12.4978368,7.1641791 12.7941176,7.46488209 12.7941176,7.8358209 C12.7941176,8.2067597 12.4978368,8.50746269 12.1323529,8.50746269 Z" id="Shape"></path>
                    <path d="M0,1.49646892 L0,5.63947164 C0.0248272059,8.21624328 2.08810147,10.2985075 4.63235294,10.2985075 C7.17660441,10.2985075 9.23987868,8.21624328 9.26259265,5.63947164 C9.26259265,5.63947164 9.26362763,2.87746983 9.26414512,1.49646892 C9.26414512,0.518859863 9.01226807,0 7.76736729,0 L1.49883202,0 C0.496337891,0 0,0.499511719 0,1.49646892 Z M2.20588235,3.13432836 C2.20588235,2.76338955 2.50216324,2.46268657 2.86764706,2.46268657 C3.23313088,2.46268657 3.52941176,2.76338955 3.52941176,3.13432836 C3.52941176,3.50526716 3.23313088,3.80597015 2.86764706,3.80597015 C2.50216324,3.80597015 2.20588235,3.50526716 2.20588235,3.13432836 Z M4.63235294,8.05970149 C3.53590147,8.05970149 2.64705882,7.1575791 2.64705882,6.04477612 L6.61764706,6.04477612 C6.61764706,7.1575791 5.72880441,8.05970149 4.63235294,8.05970149 Z M6.39705882,3.80597015 C6.031575,3.80597015 5.73529412,3.50526716 5.73529412,3.13432836 C5.73529412,2.76338955 6.031575,2.46268657 6.39705882,2.46268657 C6.76254265,2.46268657 7.05882353,2.76338955 7.05882353,3.13432836 C7.05882353,3.50526716 6.76254265,3.80597015 6.39705882,3.80597015 Z" id="Shape"></path>
                </g>
            </g>
        </g>
    </g>
</svg>