<?xml version="1.0" encoding="UTF-8"?>
<svg width="35px" height="40px" viewBox="0 0 35 40" version="1.1" xmlns="http://www.w3.org/2000/svg" xmlns:xlink="http://www.w3.org/1999/xlink">
    <!-- Generator: Sketch 48.1 (47250) - http://www.bohemiancoding.com/sketch -->
    <title>auto</title>
    <desc>Created with Sketch.</desc>
    <defs></defs>
    <g id="Page-1" stroke="none" stroke-width="1" fill="none" fill-rule="evenodd">
        <g id="auto">
            <g id="Backing/Violet">
                <g id="Combined-Shape">
                    <g id="path-1-link" fill="#000000" fill-rule="nonzero">
                        <path d="M22.3835035,34.880747 L18.4721472,39.5665579 C17.9784185,40.1429832 17.1397664,40.1414843 16.6902363,39.5799464 L12.6489072,34.884156 C0.0855285177,34.7007641 2.51993271e-14,33.0095214 0,17.4531979 C-2.81117784e-14,0.106955195 0.247160721,0 17.5,0 C34.7528393,0 35,0.207884096 35,17.4531979 C35,32.9056961 34.9146186,34.6790391 22.3835131,34.8807468 L22.3835035,34.880747 Z" id="path-1"></path>
                    </g>
                    <g id="path-1-link" fill="#0955EC">
                        <path d="M22.3835035,34.880747 L18.4721472,39.5665579 C17.9784185,40.1429832 17.1397664,40.1414843 16.6902363,39.5799464 L12.6489072,34.884156 C0.0855285177,34.7007641 2.51993271e-14,33.0095214 0,17.4531979 C-2.81117784e-14,0.106955195 0.247160721,0 17.5,0 C34.7528393,0 35,0.207884096 35,17.4531979 C35,32.9056961 34.9146186,34.6790391 22.3835131,34.8807468 L22.3835035,34.880747 Z" id="path-1"></path>
                    </g>
                </g>
            </g>
            <g id="Icon/Auto" transform="translate(10.000000, 11.000000)" fill="#FFFFFF" fill-rule="nonzero">
                <path d="M11.875,1.08923463 C11.6477273,0.5023092 11.1363636,0.125 10.5681818,0.125 L4.46969697,0.125 C3.90151515,0.125 3.39015152,0.5023092 3.16287879,1.08923463 L1.91287879,4.33828608 L0.378787879,4.33828608 C0.170454545,4.33828608 -2.13162821e-14,4.52694069 -2.13162821e-14,4.75751853 L-2.13162821e-14,5.59598342 C-2.13162821e-14,5.82656127 0.170454545,6.01521587 0.378787879,6.01521587 L1.42045455,6.01521587 L1.07954545,10.1027322 L1.07954545,10.1446555 C1.07954545,10.8992739 1.5719697,11.5490842 2.21590909,11.6748539 L2.21590909,12.7648583 C2.21590909,12.9954361 2.38636364,13.1840907 2.59469697,13.1840907 L4.22348485,13.1840907 C4.43181818,13.1840907 4.60227273,12.9954361 4.60227273,12.7648583 L4.60227273,11.7167771 L10.3977273,11.7167771 L10.3977273,12.7648583 C10.3977273,12.9954361 10.5681818,13.1840907 10.7765152,13.1840907 L12.405303,13.1840907 C12.6136364,13.1840907 12.7840909,12.9954361 12.7840909,12.7648583 L12.7840909,11.6748539 C13.4280303,11.5281225 13.9204545,10.8992739 13.9204545,10.1446555 L13.9204545,10.1027322 L13.5795455,6.01521587 L14.6212121,6.01521587 C14.8295455,6.01521587 15,5.82656127 15,5.59598342 L15,4.75751853 C15,4.52694069 14.8295455,4.33828608 14.6212121,4.33828608 L13.0871212,4.33828608 L11.875,1.08923463 Z M5.09015012,1.48863636 L10.0813259,1.48863636 C10.2368143,1.48863636 10.3767538,1.58794951 10.4389491,1.73691922 L11.5584652,4.56734376 L3.61301086,4.56734376 L4.73252693,1.73691922 C4.79472227,1.58794951 4.93466178,1.48863636 5.09015012,1.48863636 Z M4.06755632,8.6773419 C3.44177842,8.6773419 2.94115611,8.17426297 2.94115611,7.5454143 C2.94115611,6.91656563 3.44177842,6.41348669 4.06755632,6.41348669 C4.69333421,6.41348669 5.19395653,6.91656563 5.19395653,7.5454143 C5.19395653,8.17426297 4.69333421,8.6773419 4.06755632,8.6773419 Z M11.1310623,6.41348669 C11.7568402,6.41348669 12.2574625,6.91656563 12.2574625,7.5454143 C12.2574625,8.17426297 11.7568402,8.6773419 11.1310623,8.6773419 C10.5052844,8.6773419 10.0046621,8.17426297 10.0046621,7.5454143 C10.0046621,6.91656563 10.5052844,6.41348669 11.1310623,6.41348669 Z" id="Car"></path>
            </g>
        </g>
    </g>
</svg>