<?xml version="1.0" encoding="UTF-8"?>
<svg width="35px" height="40px" viewBox="0 0 35 40" version="1.1" xmlns="http://www.w3.org/2000/svg" xmlns:xlink="http://www.w3.org/1999/xlink">
    <!-- Generator: Sketch 48.1 (47250) - http://www.bohemiancoding.com/sketch -->
    <title>bar</title>
    <desc>Created with Sketch.</desc>
    <defs></defs>
    <g id="Page-1" stroke="none" stroke-width="1" fill="none" fill-rule="evenodd">
        <g id="bar">
            <g id="Backing/Violet">
                <g id="Combined-Shape">
                    <g id="path-1-link" fill="#000000" fill-rule="nonzero">
                        <path d="M22.3835035,34.880747 L18.4721472,39.5665579 C17.9784185,40.1429832 17.1397664,40.1414843 16.6902363,39.5799464 L12.6489072,34.884156 C0.0855285177,34.7007641 2.51993271e-14,33.0095214 0,17.4531979 C-2.81117784e-14,0.106955195 0.247160721,0 17.5,0 C34.7528393,0 35,0.207884096 35,17.4531979 C35,32.9056961 34.9146186,34.6790391 22.3835131,34.8807468 L22.3835035,34.880747 Z" id="path-1"></path>
                    </g>
                    <g id="path-1-link" fill="#0955EC">
                        <path d="M22.3835035,34.880747 L18.4721472,39.5665579 C17.9784185,40.1429832 17.1397664,40.1414843 16.6902363,39.5799464 L12.6489072,34.884156 C0.0855285177,34.7007641 2.51993271e-14,33.0095214 0,17.4531979 C-2.81117784e-14,0.106955195 0.247160721,0 17.5,0 C34.7528393,0 35,0.207884096 35,17.4531979 C35,32.9056961 34.9146186,34.6790391 22.3835131,34.8807468 L22.3835035,34.880747 Z" id="path-1"></path>
                    </g>
                </g>
            </g>
            <g id="Icon/Nightlife" transform="translate(10.000000, 10.000000)" fill="#FFFFFF">
                <path d="M8.88200724,13.3206739 C8.74215488,13.3134815 8.61100656,13.2502027 8.51790741,13.1449963 C8.42480825,13.03979 8.37752984,12.9014384 8.38665097,12.7608985 C8.38665097,12.7608985 8.38665097,10.8939647 8.38665097,9.42871115 C8.38665097,9.36204604 8.25618929,9.06836119 7.97355791,9.06836119 C7.7401579,9.06836119 7.37554999,9.06836119 7.14169121,9.06836119 C6.83420185,9.06836119 6.71691075,9.35659315 6.71691075,9.40653743 C6.71691075,10.8791822 6.71691075,12.7608985 6.71691075,12.7608985 C6.68287617,13.0785543 6.41677629,13.3196602 6.09910687,13.3206739 L4.5018484,13.3206739 C3.88706702,13.3206739 3.38868825,13.8219138 3.38868825,14.4402246 C3.38868825,14.74938 3.63787763,15 3.94526832,15 L11.0358458,15 C11.3432365,15 11.5924259,14.74938 11.5924259,14.4402246 C11.5924259,14.1433013 11.3107162,13.3206739 10.581023,13.3206739 C10.581023,13.3206739 9.17723567,13.3206739 8.88200724,13.3206739 Z M14.3614493,0.0274169928 L0.55687947,0 C0.55687947,0 0.162930244,0.0525166606 0.039880974,0.411493399 C-0.0831682956,0.770470138 0.117804164,1.05106389 0.117804164,1.05106389 L5.33898551,6.65908576 C5.33898551,6.65908576 6.19875099,7.47373933 6.70919253,7.61278309 C6.70919253,7.61278309 6.9996345,7.73237579 7.5,7.73237579 C8.0003655,7.73237579 8.21819983,7.61278309 8.21819983,7.61278309 C8.86233212,7.42190954 9.53472519,6.65908576 9.53472519,6.65908576 L14.8019853,1.14866345 C14.8019853,1.14866345 15.1190968,0.867220049 14.9507196,0.433610025 C14.7823424,0 14.3614493,0.0274169928 14.3614493,0.0274169928 Z M12.4503882,1.71819576 L10.6081791,3.43678601 C10.0534056,3.45367217 9.26019761,3.33546901 8.17897952,2.87729103 C6.74010958,2.36507733 5.43816247,3.34560071 4.99552406,3.73623402 L2.83087887,1.66975232 C2.65883717,1.46831662 2.95117934,1.46831662 2.95117934,1.46831662 L12.3314428,1.46831662 C12.3314428,1.46831662 12.6362443,1.46831662 12.4503882,1.71819576 Z" id="Combined-Shape"></path>
            </g>
        </g>
    </g>
</svg>