<?xml version="1.0" encoding="UTF-8"?>
<svg width="35px" height="40px" viewBox="0 0 35 40" version="1.1" xmlns="http://www.w3.org/2000/svg" xmlns:xlink="http://www.w3.org/1999/xlink">
    <!-- Generator: Sketch 48.1 (47250) - http://www.bohemiancoding.com/sketch -->
    <title>cafe</title>
    <desc>Created with Sketch.</desc>
    <defs></defs>
    <g id="Page-1" stroke="none" stroke-width="1" fill="none" fill-rule="evenodd">
        <g id="cafe">
            <g id="Backing/Violet">
                <g id="Combined-Shape">
                    <g id="path-1-link" fill="#000000" fill-rule="nonzero">
                        <path d="M22.3835035,34.880747 L18.4721472,39.5665579 C17.9784185,40.1429832 17.1397664,40.1414843 16.6902363,39.5799464 L12.6489072,34.884156 C0.0855285177,34.7007641 2.51993271e-14,33.0095214 0,17.4531979 C-2.81117784e-14,0.106955195 0.247160721,0 17.5,0 C34.7528393,0 35,0.207884096 35,17.4531979 C35,32.9056961 34.9146186,34.6790391 22.3835131,34.8807468 L22.3835035,34.880747 Z" id="path-1"></path>
                    </g>
                    <g id="path-1-link" fill="#0955EC">
                        <path d="M22.3835035,34.880747 L18.4721472,39.5665579 C17.9784185,40.1429832 17.1397664,40.1414843 16.6902363,39.5799464 L12.6489072,34.884156 C0.0855285177,34.7007641 2.51993271e-14,33.0095214 0,17.4531979 C-2.81117784e-14,0.106955195 0.247160721,0 17.5,0 C34.7528393,0 35,0.207884096 35,17.4531979 C35,32.9056961 34.9146186,34.6790391 22.3835131,34.8807468 L22.3835035,34.880747 Z" id="path-1"></path>
                    </g>
                </g>
            </g>
            <g id="Icon/Coffee" transform="translate(10.000000, 10.000000)" fill="#FFFFFF" fill-rule="nonzero">
                <path d="M11.3488844,5.22664583 L11.1052234,5.22664583 L11.1052234,4.96942771 C11.0948772,4.56762522 10.7750241,4.24514119 10.3791135,4.23734539 L1.11999371,4.23734539 C0.718162181,4.23459003 0.389486061,4.56158045 0.384137353,4.96942771 C0.272053272,7.49709034 1.20771169,12.1517489 2.2798203,14.2243333 C2.39868865,14.467053 2.64144562,14.6217739 2.9084658,14.625 L8.58089496,14.625 C8.84615145,14.6199362 9.08659962,14.4654895 9.20466724,14.2243333 C9.49918142,13.6245226 9.74369672,13.0007329 9.93565038,12.359502 C11.3004604,12.9384546 12.8745015,12.6253117 13.9230246,11.5662457 C14.9715478,10.5071797 15.2877933,8.91102914 14.7241406,7.5228636 C14.1604879,6.13469805 12.8280843,5.22825164 11.3488844,5.22664583 Z M11.3488844,10.6677982 C11.0354354,10.6674042 10.7282993,10.5783315 10.4619582,10.4105801 C10.6997146,9.36651314 10.8786893,8.3095475 10.9980125,7.24481872 C11.6375223,7.10367028 12.3002065,7.34639026 12.7035715,7.86951028 C13.1069365,8.39263029 13.1798443,9.10389224 12.8912152,9.70009432 C12.6025861,10.2962964 12.0033232,10.6722917 11.3488844,10.6677982 Z M2.49424202,2.65941119 C2.85371207,2.83858718 3.28829406,2.69081297 3.4688862,2.32799554 C3.7710259,1.71957577 3.9562083,1.59591322 4.44353039,1.53160869 C5.53025866,1.38816013 7.58675789,2.93146881 9.21441368,2.70887621 C10.1464873,2.61175812 10.9463863,1.99278285 11.2855326,1.1062095 C11.4179673,0.867631568 11.4101723,0.574406816 11.265255,0.34342532 C11.1203377,0.112443823 10.8618609,-0.0187380032 10.5928629,0.0021736984 C10.3238649,0.0230854 10.0880833,0.192690494 9.97950937,0.443378206 C9.67736967,1.05179798 9.49218727,1.17546053 9.00486518,1.23976506 C7.91813691,1.38816013 5.88113056,-0.160095062 4.22910867,0.0624975369 C3.3006797,0.1631363 2.50530309,0.78152218 2.16773621,1.66516425 C1.98794393,2.03127407 2.1339966,2.47602088 2.49424202,2.65941119 Z" id="Shape"></path>
            </g>
        </g>
    </g>
</svg>