<?xml version="1.0" encoding="UTF-8"?>
<svg width="35px" height="40px" viewBox="0 0 35 40" version="1.1" xmlns="http://www.w3.org/2000/svg" xmlns:xlink="http://www.w3.org/1999/xlink">
    <!-- Generator: Sketch 48.1 (47250) - http://www.bohemiancoding.com/sketch -->
    <title>community</title>
    <desc>Created with Sketch.</desc>
    <defs></defs>
    <g id="Page-1" stroke="none" stroke-width="1" fill="none" fill-rule="evenodd">
        <g id="community">
            <g id="Backing/Violet">
                <g id="Combined-Shape">
                    <g id="path-1-link" fill="#000000" fill-rule="nonzero">
                        <path d="M22.3835035,34.880747 L18.4721472,39.5665579 C17.9784185,40.1429832 17.1397664,40.1414843 16.6902363,39.5799464 L12.6489072,34.884156 C0.0855285177,34.7007641 2.51993271e-14,33.0095214 0,17.4531979 C-2.81117784e-14,0.106955195 0.247160721,0 17.5,0 C34.7528393,0 35,0.207884096 35,17.4531979 C35,32.9056961 34.9146186,34.6790391 22.3835131,34.8807468 L22.3835035,34.880747 Z" id="path-1"></path>
                    </g>
                    <g id="path-1-link" fill="#0955EC">
                        <path d="M22.3835035,34.880747 L18.4721472,39.5665579 C17.9784185,40.1429832 17.1397664,40.1414843 16.6902363,39.5799464 L12.6489072,34.884156 C0.0855285177,34.7007641 2.51993271e-14,33.0095214 0,17.4531979 C-2.81117784e-14,0.106955195 0.247160721,0 17.5,0 C34.7528393,0 35,0.207884096 35,17.4531979 C35,32.9056961 34.9146186,34.6790391 22.3835131,34.8807468 L22.3835035,34.880747 Z" id="path-1"></path>
                    </g>
                </g>
            </g>
            <g id="Icon/Public" transform="translate(10.000000, 10.000000)" fill="#FFFFFF" fill-rule="nonzero">
                <path d="M14.8663098,3.72461388 L7.77018371,0.048185091 C7.62802131,-0.016061697 7.46506904,-0.016061697 7.32290664,0.048185091 L0.23180612,3.72461388 C0.107949533,3.78929594 0.0587693841,3.94121229 0.121243248,4.06614005 L0.452931863,4.73412507 C0.527496778,4.86580876 0.663658077,4.95085638 0.814773987,4.96013503 L14.2783164,4.96013503 C14.4294323,4.95085638 14.5655936,4.86580876 14.6401585,4.73412507 L14.9718471,4.06614005 C15.0350977,3.94252723 14.9882913,3.79105845 14.8663098,3.72461388 Z M2.1214261,5.95960133 L1.5183559,11.9865338 L4.53370693,11.9865338 L3.93063673,5.95960133 L2.1214261,5.95960133 Z M6.64445266,5.95960133 L6.04138245,11.9865338 L9.05673349,11.9865338 L8.45366328,5.95960133 L6.64445266,5.95960133 Z M11.1674792,5.95960133 L10.564409,11.9865338 L13.57976,11.9865338 L12.9766898,5.95960133 L11.1674792,5.95960133 Z M13.7154508,12.9910225 L0.880106593,12.9910225 C-0.295880312,12.9910225 -0.290854727,15 0.880106593,15 L13.7154508,15 C14.8914377,15 14.8864122,12.9910225 13.7154508,12.9910225 Z" id="Shape"></path>
            </g>
        </g>
    </g>
</svg>