<?xml version="1.0" encoding="UTF-8"?>
<svg width="35px" height="40px" viewBox="0 0 35 40" version="1.1" xmlns="http://www.w3.org/2000/svg" xmlns:xlink="http://www.w3.org/1999/xlink">
    <!-- Generator: Sketch 48.1 (47250) - http://www.bohemiancoding.com/sketch -->
    <title>commercial</title>
    <desc>Created with Sketch.</desc>
    <defs></defs>
    <g id="Page-1" stroke="none" stroke-width="1" fill="none" fill-rule="evenodd">
        <g id="commercial">
            <g id="Backing/Violet">
                <g id="Combined-Shape">
                    <g id="path-1-link" fill="#000000" fill-rule="nonzero">
                        <path d="M22.3835035,34.880747 L18.4721472,39.5665579 C17.9784185,40.1429832 17.1397664,40.1414843 16.6902363,39.5799464 L12.6489072,34.884156 C0.0855285177,34.7007641 2.51993271e-14,33.0095214 0,17.4531979 C-2.81117784e-14,0.106955195 0.247160721,0 17.5,0 C34.7528393,0 35,0.207884096 35,17.4531979 C35,32.9056961 34.9146186,34.6790391 22.3835131,34.8807468 L22.3835035,34.880747 Z" id="path-1"></path>
                    </g>
                    <g id="path-1-link" fill="#0955EC">
                        <path d="M22.3835035,34.880747 L18.4721472,39.5665579 C17.9784185,40.1429832 17.1397664,40.1414843 16.6902363,39.5799464 L12.6489072,34.884156 C0.0855285177,34.7007641 2.51993271e-14,33.0095214 0,17.4531979 C-2.81117784e-14,0.106955195 0.247160721,0 17.5,0 C34.7528393,0 35,0.207884096 35,17.4531979 C35,32.9056961 34.9146186,34.6790391 22.3835131,34.8807468 L22.3835035,34.880747 Z" id="path-1"></path>
                    </g>
                </g>
            </g>
            <g id="Icon/Bldg" transform="translate(11.000000, 10.000000)" fill="#FFFFFF" fill-rule="nonzero">
                <path d="M10.5,0 L2.5,0 C1.3954305,-5.55111512e-17 0.5,0.8954305 0.5,2 L0.5,15 L4.5,15 L4.5,12.5 L8.5,12.5 L8.5,15 L12.5,15 L12.5,2 C12.5,0.8954305 11.6045695,1.11022302e-16 10.5,0 Z M6,10.5 L3.5,10.5 L3.5,8.5 L6,8.5 L6,10.5 Z M6,7.5 L3.5,7.5 L3.5,5.5 L6,5.5 L6,7.5 Z M6,4.5 L3.5,4.5 L3.5,2.5 L6,2.5 L6,4.5 Z M9.5,10.5 L7,10.5 L7,8.5 L9.5,8.5 L9.5,10.5 Z M9.5,7.5 L7,7.5 L7,5.5 L9.5,5.5 L9.5,7.5 Z M9.5,4.5 L7,4.5 L7,2.5 L9.5,2.5 L9.5,4.5 Z" id="Shape"></path>
            </g>
        </g>
    </g>
</svg>