<?xml version="1.0" encoding="UTF-8"?>
<svg width="35px" height="40px" viewBox="0 0 35 40" version="1.1" xmlns="http://www.w3.org/2000/svg" xmlns:xlink="http://www.w3.org/1999/xlink">
    <!-- Generator: Sketch 48.1 (47250) - http://www.bohemiancoding.com/sketch -->
    <title>conference</title>
    <desc>Created with Sketch.</desc>
    <defs></defs>
    <g id="Page-1" stroke="none" stroke-width="1" fill="none" fill-rule="evenodd">
        <g id="conference">
            <g id="Backing/Violet">
                <g id="Combined-Shape">
                    <g id="path-1-link" fill="#000000" fill-rule="nonzero">
                        <path d="M22.3835035,34.880747 L18.4721472,39.5665579 C17.9784185,40.1429832 17.1397664,40.1414843 16.6902363,39.5799464 L12.6489072,34.884156 C0.0855285177,34.7007641 2.51993271e-14,33.0095214 0,17.4531979 C-2.81117784e-14,0.106955195 0.247160721,0 17.5,0 C34.7528393,0 35,0.207884096 35,17.4531979 C35,32.9056961 34.9146186,34.6790391 22.3835131,34.8807468 L22.3835035,34.880747 Z" id="path-1"></path>
                    </g>
                    <g id="path-1-link" fill="#0955EC">
                        <path d="M22.3835035,34.880747 L18.4721472,39.5665579 C17.9784185,40.1429832 17.1397664,40.1414843 16.6902363,39.5799464 L12.6489072,34.884156 C0.0855285177,34.7007641 2.51993271e-14,33.0095214 0,17.4531979 C-2.81117784e-14,0.106955195 0.247160721,0 17.5,0 C34.7528393,0 35,0.207884096 35,17.4531979 C35,32.9056961 34.9146186,34.6790391 22.3835131,34.8807468 L22.3835035,34.880747 Z" id="path-1"></path>
                    </g>
                </g>
            </g>
            <g id="Icon/Conference" transform="translate(10.000000, 10.000000)" fill="#FFFFFF" fill-rule="nonzero">
                <path d="M3,15 L12,15 L13,10.9288636 L2,10.9288636 L3,15 Z M13.585,7.36661932 L13.585,6.85772727 C13.585,5.5702304 12.985,3.12754858 10.825,2.27769886 C10.7811802,1.4689825 10.2053272,0.792881143 9.425,0.633977553 L6.425,0.0233070981 C5.49521711,-0.130485798 4.61264458,0.492378204 4.42816577,1.43254669 C4.24368696,2.37271518 4.82349917,3.29282364 5.74,3.51430653 L8.74,4.12497699 C9.22067773,4.22093067 9.71877057,4.10436895 10.11,3.804375 C11.875,4.40486761 11.92,6.74577102 11.92,6.85772727 L11.92,7.36661932 L1.25,7.36661932 C0.559644063,7.36661932 0,7.93621614 0,8.63884943 C-1.11022302e-16,9.34148272 0.559644063,9.91107954 1.25,9.91107954 L13.75,9.91107954 C14.4403559,9.91107954 15,9.34148272 15,8.63884943 C14.9982688,8.27186885 14.8427512,7.92308048 14.5725198,7.68011472 C14.3022884,7.43714895 13.943028,7.3230991 13.585,7.36661932 Z" id="Shape"></path>
            </g>
        </g>
    </g>
</svg>