<?xml version="1.0" encoding="UTF-8"?>
<svg width="35px" height="40px" viewBox="0 0 35 40" version="1.1" xmlns="http://www.w3.org/2000/svg" xmlns:xlink="http://www.w3.org/1999/xlink">
    <!-- Generator: Sketch 48.1 (47250) - http://www.bohemiancoding.com/sketch -->
    <title>cooking</title>
    <desc>Created with Sketch.</desc>
    <defs></defs>
    <g id="Page-1" stroke="none" stroke-width="1" fill="none" fill-rule="evenodd">
        <g id="cooking">
            <g id="Backing/Violet">
                <g id="Combined-Shape">
                    <g id="path-1-link" fill="#000000" fill-rule="nonzero">
                        <path d="M22.3835035,34.880747 L18.4721472,39.5665579 C17.9784185,40.1429832 17.1397664,40.1414843 16.6902363,39.5799464 L12.6489072,34.884156 C0.0855285177,34.7007641 2.51993271e-14,33.0095214 0,17.4531979 C-2.81117784e-14,0.106955195 0.247160721,0 17.5,0 C34.7528393,0 35,0.207884096 35,17.4531979 C35,32.9056961 34.9146186,34.6790391 22.3835131,34.8807468 L22.3835035,34.880747 Z" id="path-1"></path>
                    </g>
                    <g id="path-1-link" fill="#0955EC">
                        <path d="M22.3835035,34.880747 L18.4721472,39.5665579 C17.9784185,40.1429832 17.1397664,40.1414843 16.6902363,39.5799464 L12.6489072,34.884156 C0.0855285177,34.7007641 2.51993271e-14,33.0095214 0,17.4531979 C-2.81117784e-14,0.106955195 0.247160721,0 17.5,0 C34.7528393,0 35,0.207884096 35,17.4531979 C35,32.9056961 34.9146186,34.6790391 22.3835131,34.8807468 L22.3835035,34.880747 Z" id="path-1"></path>
                    </g>
                </g>
            </g>
            <g id="Icon/FoodServices" transform="translate(10.000000, 10.000000)" fill="#FFFFFF" fill-rule="nonzero">
                <path d="M13.3612908,1.65117948 C12.4238725,0.695522002 11.1699969,0.113908837 9.83434024,0.0151950358 C8.55276719,-0.0913740628 7.28850309,0.366424995 6.37289019,1.26861081 C5.28966947,2.51211951 4.49632835,3.98040797 4.05014131,5.56747456 C3.6174372,6.77199408 3.55774359,8.07876562 3.87883229,9.3176543 L0.976655827,11.1902273 C0.252919187,11.6375538 -0.121135929,12.4833465 0.0351380557,13.319135 C0.19141204,14.1549236 0.845865891,14.8087666 1.68243522,14.9648947 C2.51900454,15.1210229 3.36558735,14.7473169 3.81333178,14.0242557 L5.68261557,11.1197541 C6.12912663,11.2599065 6.59518451,11.3278806 7.0631648,11.321106 C9.53203019,11.321106 12.6055157,9.74552716 13.7442169,8.61292254 C15.5580771,6.80578895 15.3867681,3.6798002 13.3612908,1.65117948 Z M6.30738967,8.85454485 C6.25991878,8.7949296 6.20582859,8.74088989 6.14615765,8.6934633 C7.07341386,7.11727419 8.17907439,5.65288123 9.44133717,4.32916018 C10.7009624,3.0757444 11.7993555,2.68814193 12.1722046,2.68814193 C12.2054518,2.68136171 12.2397274,2.68136171 12.2729746,2.68814193 C12.3888601,2.91969665 12.0764731,4.13284204 10.6656929,5.53727177 C9.34611688,6.80902251 7.88361416,7.92387906 6.30738967,8.85957865 L6.30738967,8.85454485 Z M7.44609085,2.31060706 C8.28032707,1.53582396 9.47686613,1.28936514 10.5498073,1.67131468 C9.75241066,2.08812761 9.02486391,2.62648524 8.393329,3.26702874 C7.21079446,4.50146878 6.15421631,5.85046819 5.2392275,7.29406738 C5.50543538,5.46933984 6.27087194,3.75350537 7.45112935,2.33577605 L7.44609085,2.31060706 Z M12.6760547,7.56085868 C11.2616811,8.74001518 9.55003348,9.50797048 7.7282469,9.78076373 C9.16994764,8.86393979 10.5197951,7.81035571 11.7590475,6.6346398 C12.3965847,5.99654335 12.9303886,5.26282351 13.3411368,4.46003893 C13.7110024,5.53695879 13.455131,6.72991088 12.6760547,7.56085868 Z" id="Shape"></path>
            </g>
        </g>
    </g>
</svg>