<?xml version="1.0" encoding="UTF-8"?>
<svg width="35px" height="40px" viewBox="0 0 35 40" version="1.1" xmlns="http://www.w3.org/2000/svg" xmlns:xlink="http://www.w3.org/1999/xlink">
    <!-- Generator: Sketch 48.1 (47250) - http://www.bohemiancoding.com/sketch -->
    <title>education</title>
    <desc>Created with Sketch.</desc>
    <defs></defs>
    <g id="Page-1" stroke="none" stroke-width="1" fill="none" fill-rule="evenodd">
        <g id="education">
            <g id="Backing/Violet">
                <g id="Combined-Shape">
                    <g id="path-1-link" fill="#000000" fill-rule="nonzero">
                        <path d="M22.3835035,34.880747 L18.4721472,39.5665579 C17.9784185,40.1429832 17.1397664,40.1414843 16.6902363,39.5799464 L12.6489072,34.884156 C0.0855285177,34.7007641 2.51993271e-14,33.0095214 0,17.4531979 C-2.81117784e-14,0.106955195 0.247160721,0 17.5,0 C34.7528393,0 35,0.207884096 35,17.4531979 C35,32.9056961 34.9146186,34.6790391 22.3835131,34.8807468 L22.3835035,34.880747 Z" id="path-1"></path>
                    </g>
                    <g id="path-1-link" fill="#0955EC">
                        <path d="M22.3835035,34.880747 L18.4721472,39.5665579 C17.9784185,40.1429832 17.1397664,40.1414843 16.6902363,39.5799464 L12.6489072,34.884156 C0.0855285177,34.7007641 2.51993271e-14,33.0095214 0,17.4531979 C-2.81117784e-14,0.106955195 0.247160721,0 17.5,0 C34.7528393,0 35,0.207884096 35,17.4531979 C35,32.9056961 34.9146186,34.6790391 22.3835131,34.8807468 L22.3835035,34.880747 Z" id="path-1"></path>
                    </g>
                </g>
            </g>
            <g id="Icon/Education" transform="translate(10.000000, 10.000000)" fill="#FFFFFF" fill-rule="nonzero">
                <path d="M6.62149139,9.81034914 L2.88133969,7.68717626 L2.42906591,11.055324 C2.42906591,13.5969324 7.32276983,14.371813 10.3159075,13.3851317 L10.773263,8.45172513 L8.39501441,9.80518327 C7.83578988,10.0828096 7.18227178,10.0847131 6.62149139,9.81034914 Z M14.6353762,3.75594861 L8.3950144,0.2069954 C7.83501165,-0.0689984666 7.18149413,-0.0689984666 6.62149139,0.2069954 L0.381129589,3.75594861 C-0.127043196,4.03490563 -0.127043196,4.48950226 0.381129589,4.78912276 L6.62149139,8.34840771 C7.18149413,8.62440158 7.83501165,8.62440158 8.3950144,8.34840771 L12.5366226,5.96694129 L11.8302624,13.5814348 C11.8231884,13.662207 11.8231884,13.7434585 11.8302624,13.8242307 C11.8729273,14.2856277 12.1544942,14.6888377 12.5688997,14.8819756 C12.9833051,15.0751134 13.4675911,15.0288367 13.8393317,14.7605776 C14.2110722,14.4923185 14.4137912,14.0428318 14.3711264,13.5814348 L13.6088672,5.37286616 L14.6252127,4.78912276 C15.1232221,4.48950226 15.1232221,4.03490563 14.6353762,3.75594861 Z" id="Shape"></path>
            </g>
        </g>
    </g>
</svg>