<?xml version="1.0" encoding="UTF-8"?>
<svg width="35px" height="40px" viewBox="0 0 35 40" version="1.1" xmlns="http://www.w3.org/2000/svg" xmlns:xlink="http://www.w3.org/1999/xlink">
    <!-- Generator: Sketch 48.1 (47250) - http://www.bohemiancoding.com/sketch -->
    <title>finance</title>
    <desc>Created with Sketch.</desc>
    <defs></defs>
    <g id="Page-1" stroke="none" stroke-width="1" fill="none" fill-rule="evenodd">
        <g id="finance">
            <g id="Backing/Violet">
                <g id="Combined-Shape">
                    <g id="path-1-link" fill="#000000" fill-rule="nonzero">
                        <path d="M22.3835035,34.880747 L18.4721472,39.5665579 C17.9784185,40.1429832 17.1397664,40.1414843 16.6902363,39.5799464 L12.6489072,34.884156 C0.0855285177,34.7007641 2.51993271e-14,33.0095214 0,17.4531979 C-2.81117784e-14,0.106955195 0.247160721,0 17.5,0 C34.7528393,0 35,0.207884096 35,17.4531979 C35,32.9056961 34.9146186,34.6790391 22.3835131,34.8807468 L22.3835035,34.880747 Z" id="path-1"></path>
                    </g>
                    <g id="path-1-link" fill="#0955EC">
                        <path d="M22.3835035,34.880747 L18.4721472,39.5665579 C17.9784185,40.1429832 17.1397664,40.1414843 16.6902363,39.5799464 L12.6489072,34.884156 C0.0855285177,34.7007641 2.51993271e-14,33.0095214 0,17.4531979 C-2.81117784e-14,0.106955195 0.247160721,0 17.5,0 C34.7528393,0 35,0.207884096 35,17.4531979 C35,32.9056961 34.9146186,34.6790391 22.3835131,34.8807468 L22.3835035,34.880747 Z" id="path-1"></path>
                    </g>
                </g>
            </g>
            <g id="Icon/Bank" transform="translate(10.000000, 10.000000)" fill="#FFFFFF" fill-rule="nonzero">
                <path d="M7.5,1.11022302e-16 C3.35786438,-1.16573418e-15 4.99600361e-16,3.35786438 0,7.5 C-4.99600361e-16,11.6421356 3.35786438,15 7.5,15 C11.6421356,15 15,11.6421356 15,7.5 C15,3.35786438 11.6421356,1.11022302e-15 7.5,0 Z M8.205,11.18 L8.205,11.58 C8.205,11.9942136 7.86921356,12.33 7.455,12.33 C7.04078644,12.33 6.705,11.9942136 6.705,11.58 L6.705,11.175 C6.18876588,11.1067643 5.68416868,10.968841 5.205,10.765 C4.81190568,10.6128554 4.58066583,10.2045842 4.65232406,9.78920941 C4.72398228,9.37383462 5.07865025,9.06664109 5.5,9.055 C6.12849258,9.27208985 6.78209255,9.4081865 7.445,9.46 C8.52,9.46 8.52,9.085 8.52,8.925 C8.52,8.655 7.775,8.54 7.345,8.425 C6.29,8.16 4.695,7.745 4.695,6.11 C4.72229358,4.97108295 5.56749429,4.01811916 6.695,3.855 L6.695,3.42 C6.695,3.00578644 7.03078644,2.67 7.445,2.67 C7.85921356,2.67 8.195,3.00578644 8.195,3.42 L8.195,3.81 C8.64046332,3.85141032 9.07892415,3.94884606 9.5,4.1 C9.89527531,4.24618728 10.1314147,4.65209686 10.0631191,5.06796824 C9.99482354,5.48383963 9.64126841,5.79290788 9.22,5.805 C8.70095601,5.6502756 8.16570857,5.55631366 7.625,5.525 C7.125,5.525 6.52,5.665 6.52,6.05 C6.52,6.31 6.88,6.44 7.745,6.645 C8.775,6.895 10.335,7.265 10.335,8.975 C10.35,10.125 9.5,10.965 8.205,11.18 Z" id="Shape"></path>
            </g>
        </g>
    </g>
</svg>