<?xml version="1.0" encoding="UTF-8"?>
<svg width="35px" height="40px" viewBox="0 0 35 40" version="1.1" xmlns="http://www.w3.org/2000/svg" xmlns:xlink="http://www.w3.org/1999/xlink">
    <!-- Generator: Sketch 48.1 (47250) - http://www.bohemiancoding.com/sketch -->
    <title>gas</title>
    <desc>Created with Sketch.</desc>
    <defs></defs>
    <g id="Page-1" stroke="none" stroke-width="1" fill="none" fill-rule="evenodd">
        <g id="gas">
            <g id="Backing/Violet">
                <g id="Combined-Shape">
                    <g id="path-1-link" fill="#000000" fill-rule="nonzero">
                        <path d="M22.3835035,34.880747 L18.4721472,39.5665579 C17.9784185,40.1429832 17.1397664,40.1414843 16.6902363,39.5799464 L12.6489072,34.884156 C0.0855285177,34.7007641 2.51993271e-14,33.0095214 0,17.4531979 C-2.81117784e-14,0.106955195 0.247160721,0 17.5,0 C34.7528393,0 35,0.207884096 35,17.4531979 C35,32.9056961 34.9146186,34.6790391 22.3835131,34.8807468 L22.3835035,34.880747 Z" id="path-1"></path>
                    </g>
                    <g id="path-1-link" fill="#0955EC">
                        <path d="M22.3835035,34.880747 L18.4721472,39.5665579 C17.9784185,40.1429832 17.1397664,40.1414843 16.6902363,39.5799464 L12.6489072,34.884156 C0.0855285177,34.7007641 2.51993271e-14,33.0095214 0,17.4531979 C-2.81117784e-14,0.106955195 0.247160721,0 17.5,0 C34.7528393,0 35,0.207884096 35,17.4531979 C35,32.9056961 34.9146186,34.6790391 22.3835131,34.8807468 L22.3835035,34.880747 Z" id="path-1"></path>
                    </g>
                </g>
            </g>
            <g id="Icon/GasStation" transform="translate(10.000000, 10.000000)" fill="#FFFFFF" fill-rule="nonzero">
                <path d="M13.8814258,5.95 L13.9414104,5.89 L14.1413589,5.69 C14.3351708,5.49498127 14.3351708,5.18001873 14.1413589,4.985 L11.1421312,1.985 C10.9471626,1.7911382 10.6322812,1.7911382 10.4373126,1.985 L10.1573847,2.265 C10.0627527,2.3588833 10.0095236,2.48668123 10.0095236,2.62 C10.0095236,2.75331877 10.0627527,2.8811167 10.1573847,2.975 L10.8971942,3.715 C11.0910061,3.91001873 11.0910061,4.22498127 10.8971942,4.42 L10.3123448,5 C10.1185329,5.19501873 10.1185329,5.50998127 10.3123448,5.705 L11.7469754,7.14 C11.9495303,7.33646803 12.2665958,7.35146824 12.4867849,7.175 L12.7267232,6.975 C13.2265944,7.975 14.0263885,9.83 12.9966537,10.755 C12.1868622,11.485 10.4972972,10.965 8.99768331,10.315 L8.99768331,1.5 C8.99768331,0.671572875 8.3262833,1.11022302e-16 7.49806943,0 L2.49935647,0 C1.67114259,-1.11022302e-16 0.99974259,0.671572875 0.99974259,1.5 L0.99974259,13.5 C0.447600004,13.5 1.10993724e-16,13.9477153 0,14.5 C0,14.7761424 0.223800002,15 0.499871295,15 L9.4975546,15 C9.7736259,15 9.9974259,14.7761424 9.9974259,14.5 C9.97930546,13.9553995 9.54214357,13.5181251 8.99768331,13.5 L8.99768331,11.935 C9.91104962,12.3160819 10.8835167,12.5360006 11.8719432,12.585 C12.6468016,12.6184321 13.4056591,12.3576751 13.9963962,11.855 C15.9608904,10.09 14.5512534,7.105 13.8814258,5.95 Z M2.49935647,6 L2.49935647,3 C2.49935647,2.72385763 2.72315647,2.5 2.99922777,2.5 L6.99819812,2.5 C7.27426941,2.5 7.49806942,2.72385763 7.49806942,3 L7.49806942,6 C7.49806942,6.27614237 7.27426941,6.5 6.99819812,6.5 L2.99922777,6.5 C2.72315647,6.5 2.49935647,6.27614237 2.49935647,6 Z" id="Shape"></path>
            </g>
        </g>
    </g>
</svg>