<?xml version="1.0" encoding="UTF-8"?>
<svg width="35px" height="40px" viewBox="0 0 35 40" version="1.1" xmlns="http://www.w3.org/2000/svg" xmlns:xlink="http://www.w3.org/1999/xlink">
    <!-- Generator: Sketch 48.1 (47250) - http://www.bohemiancoding.com/sketch -->
    <title>homegarden</title>
    <desc>Created with Sketch.</desc>
    <defs></defs>
    <g id="Page-1" stroke="none" stroke-width="1" fill="none" fill-rule="evenodd">
        <g id="homegarden">
            <g id="Backing/Violet">
                <g id="Combined-Shape">
                    <g id="path-1-link" fill="#000000" fill-rule="nonzero">
                        <path d="M22.3835035,34.880747 L18.4721472,39.5665579 C17.9784185,40.1429832 17.1397664,40.1414843 16.6902363,39.5799464 L12.6489072,34.884156 C0.0855285177,34.7007641 2.51993271e-14,33.0095214 0,17.4531979 C-2.81117784e-14,0.106955195 0.247160721,0 17.5,0 C34.7528393,0 35,0.207884096 35,17.4531979 C35,32.9056961 34.9146186,34.6790391 22.3835131,34.8807468 L22.3835035,34.880747 Z" id="path-1"></path>
                    </g>
                    <g id="path-1-link" fill="#0955EC">
                        <path d="M22.3835035,34.880747 L18.4721472,39.5665579 C17.9784185,40.1429832 17.1397664,40.1414843 16.6902363,39.5799464 L12.6489072,34.884156 C0.0855285177,34.7007641 2.51993271e-14,33.0095214 0,17.4531979 C-2.81117784e-14,0.106955195 0.247160721,0 17.5,0 C34.7528393,0 35,0.207884096 35,17.4531979 C35,32.9056961 34.9146186,34.6790391 22.3835131,34.8807468 L22.3835035,34.880747 Z" id="path-1"></path>
                    </g>
                </g>
            </g>
            <g id="Icon/HomeGarden" transform="translate(10.000000, 10.000000)" fill="#FFFFFF" fill-rule="nonzero">
                <path d="M14.8239293,7.83127824 L8.26443354,0.322142326 C8.06726561,0.116445494 7.79368,-1.11157541e-16 7.50756865,0 C7.2214573,1.11157541e-16 6.94787169,0.116445494 6.75070376,0.322142326 L0.191208025,7.83127824 C-0.114123316,8.250535 -0.0473070578,8.83152756 0.345369262,9.17176833 C0.738045581,9.51200911 1.32730709,9.49948577 1.70493781,9.14287398 L2.17419404,8.6022162 L3.46591013,15 L11.5391356,15 L12.825806,8.60722229 L13.2950622,9.14788007 C13.6726929,9.50449186 14.2619544,9.5170152 14.6546307,9.17677443 C15.0473071,8.83653366 15.1141233,8.25554109 14.808792,7.83628433 L14.8239293,7.83127824 Z M7.50252288,13.2478683 C6.94518297,13.2478683 6.49336969,12.7996077 6.49336969,12.2466502 C6.49336969,11.6936927 6.94518297,11.245432 7.50252288,11.245432 C8.0598628,11.245432 8.51167607,11.6936927 8.51167607,12.2466502 C8.51167607,12.7996077 8.0598628,13.2478683 7.50252288,13.2478683 Z M7.50252288,9.99390939 C6.38784305,9.99390939 5.4842165,9.09738814 5.4842165,7.99147314 C5.4842165,6.88555814 6.38784305,5.9890369 7.50252288,5.9890369 C8.61720272,5.9890369 9.52082926,6.88555814 9.52082926,7.99147314 C9.52082926,9.09738814 8.61720272,9.99390939 7.50252288,9.99390939 Z" id="Shape"></path>
            </g>
        </g>
    </g>
</svg>