<?xml version="1.0" encoding="UTF-8"?>
<svg width="35px" height="40px" viewBox="0 0 35 40" version="1.1" xmlns="http://www.w3.org/2000/svg" xmlns:xlink="http://www.w3.org/1999/xlink">
    <!-- Generator: Sketch 48.1 (47250) - http://www.bohemiancoding.com/sketch -->
    <title>hospital</title>
    <desc>Created with Sketch.</desc>
    <defs></defs>
    <g id="Page-1" stroke="none" stroke-width="1" fill="none" fill-rule="evenodd">
        <g id="hospital">
            <g id="Backing/Violet">
                <g id="Combined-Shape">
                    <g id="path-1-link" fill="#000000" fill-rule="nonzero">
                        <path d="M22.3835035,34.880747 L18.4721472,39.5665579 C17.9784185,40.1429832 17.1397664,40.1414843 16.6902363,39.5799464 L12.6489072,34.884156 C0.0855285177,34.7007641 2.51993271e-14,33.0095214 0,17.4531979 C-2.81117784e-14,0.106955195 0.247160721,0 17.5,0 C34.7528393,0 35,0.207884096 35,17.4531979 C35,32.9056961 34.9146186,34.6790391 22.3835131,34.8807468 L22.3835035,34.880747 Z" id="path-1"></path>
                    </g>
                    <g id="path-1-link" fill="#0955EC">
                        <path d="M22.3835035,34.880747 L18.4721472,39.5665579 C17.9784185,40.1429832 17.1397664,40.1414843 16.6902363,39.5799464 L12.6489072,34.884156 C0.0855285177,34.7007641 2.51993271e-14,33.0095214 0,17.4531979 C-2.81117784e-14,0.106955195 0.247160721,0 17.5,0 C34.7528393,0 35,0.207884096 35,17.4531979 C35,32.9056961 34.9146186,34.6790391 22.3835131,34.8807468 L22.3835035,34.880747 Z" id="path-1"></path>
                    </g>
                </g>
            </g>
            <g id="Icon/Hospital" transform="translate(10.000000, 10.000000)" fill="#FFFFFF" fill-rule="nonzero">
                <path d="M14.6744178,3.32868731 C14.3053815,1.84973561 13.1505875,0.694969946 11.6715994,0.325942734 C8.90763565,-0.108647578 6.09273287,-0.108647578 3.3287691,0.325942734 C1.84978105,0.694969946 0.694987021,1.84973561 0.325950743,3.32868731 C-0.108650248,6.09258318 -0.108650248,8.9074168 0.325950743,11.6713127 C0.694987021,13.1502644 1.84978105,14.3050301 3.3287691,14.6740573 C6.09273287,15.1086476 8.90763565,15.1086476 11.6715994,14.6740573 C13.1505875,14.3050301 14.3053815,13.1502644 14.6744178,11.6713127 C15.1085274,8.90737843 15.1085274,6.09262155 14.6744178,3.32868731 Z M11.9969047,7.99795514 C11.9969047,8.55074516 11.5487689,8.99887 10.9959653,8.99887 L8.99408639,8.99887 L8.99408639,11.0006997 C8.99408639,11.5534897 8.54595053,12.0016146 7.99314694,12.0016146 L6.99220749,12.0016146 C6.43940389,12.0016146 5.99126804,11.5534897 5.99126804,11.0006997 L5.99126804,8.99887 L3.98938913,8.99887 C3.43658554,8.99887 2.98844968,8.55074516 2.98844968,7.99795514 L2.98844968,6.99704028 C2.98844968,6.44425027 3.43658554,5.99612542 3.98938913,5.99612542 L5.99126804,5.99612542 L5.99126804,3.9942957 C5.99126804,3.44150569 6.43940389,2.99338084 6.99220749,2.99338084 L7.99314694,2.99338084 C8.54595053,2.99338084 8.99408639,3.44150569 8.99408639,3.9942957 L8.99408639,5.99612542 L10.9959653,5.99612542 C11.5487689,5.99612542 11.9969047,6.44425027 11.9969047,6.99704028 L11.9969047,7.99795514 Z" id="Shape"></path>
            </g>
        </g>
    </g>
</svg>