<?xml version="1.0" encoding="UTF-8"?>
<svg width="35px" height="40px" viewBox="0 0 35 40" version="1.1" xmlns="http://www.w3.org/2000/svg" xmlns:xlink="http://www.w3.org/1999/xlink">
    <!-- Generator: Sketch 48.1 (47250) - http://www.bohemiancoding.com/sketch -->
    <title>hotel</title>
    <desc>Created with Sketch.</desc>
    <defs></defs>
    <g id="Page-1" stroke="none" stroke-width="1" fill="none" fill-rule="evenodd">
        <g id="hotel">
            <g id="Backing/Violet">
                <g id="Combined-Shape">
                    <g id="path-1-link" fill="#000000" fill-rule="nonzero">
                        <path d="M22.3835035,34.880747 L18.4721472,39.5665579 C17.9784185,40.1429832 17.1397664,40.1414843 16.6902363,39.5799464 L12.6489072,34.884156 C0.0855285177,34.7007641 2.51993271e-14,33.0095214 0,17.4531979 C-2.81117784e-14,0.106955195 0.247160721,0 17.5,0 C34.7528393,0 35,0.207884096 35,17.4531979 C35,32.9056961 34.9146186,34.6790391 22.3835131,34.8807468 L22.3835035,34.880747 Z" id="path-1"></path>
                    </g>
                    <g id="path-1-link" fill="#0955EC">
                        <path d="M22.3835035,34.880747 L18.4721472,39.5665579 C17.9784185,40.1429832 17.1397664,40.1414843 16.6902363,39.5799464 L12.6489072,34.884156 C0.0855285177,34.7007641 2.51993271e-14,33.0095214 0,17.4531979 C-2.81117784e-14,0.106955195 0.247160721,0 17.5,0 C34.7528393,0 35,0.207884096 35,17.4531979 C35,32.9056961 34.9146186,34.6790391 22.3835131,34.8807468 L22.3835035,34.880747 Z" id="path-1"></path>
                    </g>
                </g>
            </g>
            <g id="Icon/Hotel" transform="translate(10.000000, 11.000000)" fill="#FFFFFF">
                <path d="M13.1819968,5.63745043 L13.1819968,6.28659483 L1.84191776,6.28659483 L1.84191776,1.09452733 C1.84191776,1.09452733 1.83910291,0.125 0.905861058,0.125 C-0.02738079,0.125 8.48719315e-05,1.09452733 8.48719315e-05,1.09452733 L8.48719315e-05,6.28659483 L8.48719316e-05,11.7258105 C8.48719316e-05,11.7258105 8.48719311e-05,12.7179765 0.894378585,12.7122574 C1.7886723,12.7065383 1.84191776,11.7264366 1.84191776,11.7264366 L1.84191776,8.89323509 L13.1819968,8.89323509 L13.1819968,11.7290883 C13.1819968,11.7290883 13.2370692,12.7135353 14.1131824,12.7122574 C14.9892956,12.7109795 14.9999984,11.7264366 14.9999984,11.7264366 L14.9999984,5.63437384 C14.9999984,5.63437384 15.0069088,4.66617275 14.1131824,4.6676852 C13.2194559,4.66919764 13.1819968,5.63745043 13.1819968,5.63745043 Z M3.81126835,5.42115715 C4.44639215,5.42115715 4.96126172,4.90024806 4.96126172,4.25767412 C4.96126172,3.61510019 4.44639215,3.09419109 3.81126835,3.09419109 C3.17614455,3.09419109 2.66127498,3.61510019 2.66127498,4.25767412 C2.66127498,4.90024806 3.17614455,5.42115715 3.81126835,5.42115715 Z M5.50005316,5.48037675 L5.50005316,4.1953519 C5.50005316,3.30800218 6.21336934,2.58832891 7.09087026,2.58832891 L10.4926527,2.58832891 C11.3723723,2.58832891 12.0845792,3.30800218 12.0845792,4.1953519 L12.0845792,5.48037675 L5.50005316,5.48037675 Z" id="Shape"></path>
            </g>
        </g>
    </g>
</svg>