<?xml version="1.0" encoding="UTF-8"?>
<svg width="35px" height="40px" viewBox="0 0 35 40" version="1.1" xmlns="http://www.w3.org/2000/svg" xmlns:xlink="http://www.w3.org/1999/xlink">
    <!-- Generator: Sketch 48.1 (47250) - http://www.bohemiancoding.com/sketch -->
    <title>law</title>
    <desc>Created with Sketch.</desc>
    <defs></defs>
    <g id="Page-1" stroke="none" stroke-width="1" fill="none" fill-rule="evenodd">
        <g id="law">
            <g id="Backing/Violet">
                <g id="Combined-Shape">
                    <g id="path-1-link" fill="#000000" fill-rule="nonzero">
                        <path d="M22.3835035,34.880747 L18.4721472,39.5665579 C17.9784185,40.1429832 17.1397664,40.1414843 16.6902363,39.5799464 L12.6489072,34.884156 C0.0855285177,34.7007641 2.51993271e-14,33.0095214 0,17.4531979 C-2.81117784e-14,0.106955195 0.247160721,0 17.5,0 C34.7528393,0 35,0.207884096 35,17.4531979 C35,32.9056961 34.9146186,34.6790391 22.3835131,34.8807468 L22.3835035,34.880747 Z" id="path-1"></path>
                    </g>
                    <g id="path-1-link" fill="#0955EC">
                        <path d="M22.3835035,34.880747 L18.4721472,39.5665579 C17.9784185,40.1429832 17.1397664,40.1414843 16.6902363,39.5799464 L12.6489072,34.884156 C0.0855285177,34.7007641 2.51993271e-14,33.0095214 0,17.4531979 C-2.81117784e-14,0.106955195 0.247160721,0 17.5,0 C34.7528393,0 35,0.207884096 35,17.4531979 C35,32.9056961 34.9146186,34.6790391 22.3835131,34.8807468 L22.3835035,34.880747 Z" id="path-1"></path>
                    </g>
                </g>
            </g>
            <g id="Icon/Legal" transform="translate(10.000000, 10.000000)" fill="#FFFFFF" fill-rule="nonzero">
                <path d="M14.5338157,9.67470677 L12.7810151,2.98902445 L14.1732396,2.73862436 C14.5257093,2.67600283 14.8179967,2.43009776 14.9399997,2.0935392 C15.0620028,1.75698065 14.9951864,1.38089987 14.7647197,1.10696285 C14.5342529,0.833025837 14.1751492,0.702850134 13.8226794,0.765471675 L8.72954168,1.66190399 C8.32590377,1.25469619 7.7482122,1.07135646 7.18362702,1.17128304 C6.61904184,1.27120962 6.13937206,1.64169296 5.9000207,2.16270416 L0.826914935,3.08918448 C0.282043867,3.18598899 -0.0811858508,3.70616982 0.0156186537,4.25104088 C0.112423158,4.79591195 0.632603988,5.15914167 1.17747506,5.06233717 L2.63480356,4.80192107 L0.511410826,11.1771073 L0.010610652,11.1771073 C0.010610652,12.9749052 1.46801384,14.4323084 3.26581178,14.4323084 C5.06360972,14.4323084 6.52101291,12.9749052 6.52101291,11.1771073 L6.02021274,11.1771073 L4.27242013,4.50644897 L6.25058082,4.16590485 C6.65426957,4.57090807 7.23054668,4.75282205 7.79359717,4.6529904 C8.35664767,4.55315876 8.83525385,4.18420873 9.0750938,3.66510468 L11.1584225,3.29451255 L9.02501378,9.67470677 L8.48915759,9.67470677 C8.48915759,11.4725047 9.94656078,12.9299079 11.7443587,12.9299079 C13.5421567,12.9299079 14.9995599,11.4725047 14.9995599,9.67470677 L14.5338157,9.67470677 Z M1.83853129,11.1771073 L3.45611585,6.3093296 L4.73816429,11.1771073 L1.83853129,11.1771073 Z M10.3521342,9.67470677 L11.9697188,4.80692908 L13.2517672,9.67470677 L10.3521342,9.67470677 Z" id="Shape"></path>
            </g>
        </g>
    </g>
</svg>