<?xml version="1.0" encoding="UTF-8"?>
<svg width="35px" height="40px" viewBox="0 0 35 40" version="1.1" xmlns="http://www.w3.org/2000/svg" xmlns:xlink="http://www.w3.org/1999/xlink">
    <!-- Generator: Sketch 48.1 (47250) - http://www.bohemiancoding.com/sketch -->
    <title>market</title>
    <desc>Created with Sketch.</desc>
    <defs></defs>
    <g id="Page-1" stroke="none" stroke-width="1" fill="none" fill-rule="evenodd">
        <g id="market">
            <g id="Backing/Violet">
                <g id="Combined-Shape">
                    <g id="path-1-link" fill="#000000" fill-rule="nonzero">
                        <path d="M22.3835035,34.880747 L18.4721472,39.5665579 C17.9784185,40.1429832 17.1397664,40.1414843 16.6902363,39.5799464 L12.6489072,34.884156 C0.0855285177,34.7007641 2.51993271e-14,33.0095214 0,17.4531979 C-2.81117784e-14,0.106955195 0.247160721,0 17.5,0 C34.7528393,0 35,0.207884096 35,17.4531979 C35,32.9056961 34.9146186,34.6790391 22.3835131,34.8807468 L22.3835035,34.880747 Z" id="path-1"></path>
                    </g>
                    <g id="path-1-link" fill="#0955EC">
                        <path d="M22.3835035,34.880747 L18.4721472,39.5665579 C17.9784185,40.1429832 17.1397664,40.1414843 16.6902363,39.5799464 L12.6489072,34.884156 C0.0855285177,34.7007641 2.51993271e-14,33.0095214 0,17.4531979 C-2.81117784e-14,0.106955195 0.247160721,0 17.5,0 C34.7528393,0 35,0.207884096 35,17.4531979 C35,32.9056961 34.9146186,34.6790391 22.3835131,34.8807468 L22.3835035,34.880747 Z" id="path-1"></path>
                    </g>
                </g>
            </g>
            <g id="Icon/FoodMarket" transform="translate(10.000000, 10.000000)" fill="#FFFFFF" fill-rule="nonzero">
                <path d="M5.43261076,11.4994012 C4.43316607,11.4994012 3.62295607,12.2830369 3.62295607,13.2497006 C3.62295607,14.2163643 4.43316607,15 5.43261076,15 C6.43205545,15 7.24226545,14.2163643 7.24226545,13.2497006 C7.24226545,12.2830369 6.43205545,11.4994012 5.43261076,11.4994012 Z M12.1541853,11.4994012 C11.1547406,11.4994012 10.3445306,12.2830369 10.3445306,13.2497006 C10.3445306,14.2163643 11.1547406,15 12.1541853,15 C13.15363,15 13.96384,14.2163643 13.96384,13.2497006 C13.96384,12.2830369 13.15363,11.4994012 12.1541853,11.4994012 Z M14.7859403,3.38301275 C14.5998777,3.15168292 14.3182714,3.01092808 14.0155444,2.99794688 L4.07278452,2.49786133 L3.10074143,1.56770221 C3.12958697,0.947309928 2.76025606,0.373856233 2.17181468,0.125373762 C1.5833733,-0.12310871 0.897471804,0.00474961239 0.446661886,0.446958047 C-0.00414803271,0.889166481 -0.126669006,1.55430587 0.138501894,2.1198908 C0.403672794,2.68547573 1.00171594,3.03458103 1.64267679,2.99794688 L2.67676519,3.99811797 L4.09346629,9.72409748 C4.20185358,10.1780723 4.61998082,10.4995288 5.10170247,10.4992301 L5.23613396,10.4992301 L13.0641831,9.49905899 C13.4948858,9.4438772 13.8439955,9.13418973 13.9379878,8.72392639 L14.9720762,4.22315647 C15.0438972,3.93028576 14.9755302,3.62170415 14.7859403,3.38301275 Z" id="Shape"></path>
            </g>
        </g>
    </g>
</svg>