<?xml version="1.0" encoding="UTF-8"?>
<svg width="35px" height="40px" viewBox="0 0 35 40" version="1.1" xmlns="http://www.w3.org/2000/svg" xmlns:xlink="http://www.w3.org/1999/xlink">
    <!-- Generator: Sketch 48.1 (47250) - http://www.bohemiancoding.com/sketch -->
    <title>medical</title>
    <desc>Created with Sketch.</desc>
    <defs></defs>
    <g id="Page-1" stroke="none" stroke-width="1" fill="none" fill-rule="evenodd">
        <g id="medical">
            <g id="Backing/Violet">
                <g id="Combined-Shape">
                    <g id="path-1-link" fill="#000000" fill-rule="nonzero">
                        <path d="M22.3835035,34.880747 L18.4721472,39.5665579 C17.9784185,40.1429832 17.1397664,40.1414843 16.6902363,39.5799464 L12.6489072,34.884156 C0.0855285177,34.7007641 2.51993271e-14,33.0095214 0,17.4531979 C-2.81117784e-14,0.106955195 0.247160721,0 17.5,0 C34.7528393,0 35,0.207884096 35,17.4531979 C35,32.9056961 34.9146186,34.6790391 22.3835131,34.8807468 L22.3835035,34.880747 Z" id="path-1"></path>
                    </g>
                    <g id="path-1-link" fill="#0955EC">
                        <path d="M22.3835035,34.880747 L18.4721472,39.5665579 C17.9784185,40.1429832 17.1397664,40.1414843 16.6902363,39.5799464 L12.6489072,34.884156 C0.0855285177,34.7007641 2.51993271e-14,33.0095214 0,17.4531979 C-2.81117784e-14,0.106955195 0.247160721,0 17.5,0 C34.7528393,0 35,0.207884096 35,17.4531979 C35,32.9056961 34.9146186,34.6790391 22.3835131,34.8807468 L22.3835035,34.880747 Z" id="path-1"></path>
                    </g>
                </g>
            </g>
            <g id="Icon/Medical" transform="translate(10.000000, 10.000000)" fill="#FFFFFF" fill-rule="nonzero">
                <path d="M12.5758289,7.83201899 C11.5482831,7.83385496 10.6251902,8.45655402 10.2443323,9.40479762 C9.86347435,10.3530412 10.1014488,11.4361205 10.8453949,12.1403791 C9.95215862,13.1097316 8.4794113,13.2835229 7.38250968,12.5490162 C6.28560806,11.8145096 5.89496043,10.3929528 6.46397608,9.20649583 C9.37469991,8.86236428 11.5673762,6.4111419 11.5697626,3.49866834 L11.5697626,0.999619526 C11.5697626,0.447544907 11.1193314,0 10.5636963,0 L8.55156369,0 C7.9959286,-5.54900307e-17 7.54549737,0.447544907 7.54549737,0.999619526 C7.54549737,1.55169414 7.9959286,1.99923905 8.55156369,1.99923905 L9.55763,1.99923905 L9.55763,3.49866834 C9.55763,5.56894817 7.86851288,7.24724157 5.78488132,7.24724157 C3.70124975,7.24724157 2.01213263,5.56894817 2.01213263,3.49866834 L2.01213263,1.99923905 L3.01819895,1.99923905 C3.57383403,1.99923905 4.02426526,1.55169414 4.02426526,0.999619526 C4.02426526,0.447544907 3.57383403,0 3.01819895,0 L1.00606632,0 C0.450431232,-5.54900307e-17 1.11695799e-16,0.447544907 0,0.999619526 L0,3.49866834 C0.00441716121,6.12941212 1.80434052,8.42200821 4.37135814,9.0665491 C3.73176193,11.3003851 4.84594836,13.6610737 6.98344983,14.6009327 C9.12095129,15.5407917 11.628682,14.7726593 12.8625578,12.800128 C14.1459538,12.6063981 15.0701354,11.474048 14.9958179,10.1863592 C14.9215004,8.89867036 13.8731006,7.87871126 12.5758289,7.83201899 Z M12.5758289,11.3306873 C12.0201939,11.3306873 11.5697626,10.8831424 11.5697626,10.3310678 C11.5697626,9.77899317 12.0201939,9.33144826 12.5758289,9.33144826 C13.131464,9.33144826 13.5818953,9.77899317 13.5818953,10.3310678 C13.5818953,10.8831424 13.131464,11.3306873 12.5758289,11.3306873 Z" id="Shape"></path>
            </g>
        </g>
    </g>
</svg>