<?xml version="1.0" encoding="UTF-8"?>
<svg width="35px" height="40px" viewBox="0 0 35 40" version="1.1" xmlns="http://www.w3.org/2000/svg" xmlns:xlink="http://www.w3.org/1999/xlink">
    <!-- Generator: Sketch 48.1 (47250) - http://www.bohemiancoding.com/sketch -->
    <title>park</title>
    <desc>Created with Sketch.</desc>
    <defs></defs>
    <g id="Page-1" stroke="none" stroke-width="1" fill="none" fill-rule="evenodd">
        <g id="park">
            <g id="Backing/Violet">
                <g id="Combined-Shape">
                    <g id="path-1-link" fill="#000000" fill-rule="nonzero">
                        <path d="M22.3835035,34.880747 L18.4721472,39.5665579 C17.9784185,40.1429832 17.1397664,40.1414843 16.6902363,39.5799464 L12.6489072,34.884156 C0.0855285177,34.7007641 2.51993271e-14,33.0095214 0,17.4531979 C-2.81117784e-14,0.106955195 0.247160721,0 17.5,0 C34.7528393,0 35,0.207884096 35,17.4531979 C35,32.9056961 34.9146186,34.6790391 22.3835131,34.8807468 L22.3835035,34.880747 Z" id="path-1"></path>
                    </g>
                    <g id="path-1-link" fill="#0955EC">
                        <path d="M22.3835035,34.880747 L18.4721472,39.5665579 C17.9784185,40.1429832 17.1397664,40.1414843 16.6902363,39.5799464 L12.6489072,34.884156 C0.0855285177,34.7007641 2.51993271e-14,33.0095214 0,17.4531979 C-2.81117784e-14,0.106955195 0.247160721,0 17.5,0 C34.7528393,0 35,0.207884096 35,17.4531979 C35,32.9056961 34.9146186,34.6790391 22.3835131,34.8807468 L22.3835035,34.880747 Z" id="path-1"></path>
                    </g>
                </g>
            </g>
            <g id="Icon/Parks" transform="translate(11.000000, 10.000000)" fill="#FFFFFF" fill-rule="nonzero">
                <path d="M9.0344638,11.4982455 L9.2545741,11.1530726 L9.6347646,11.1530726 C11.5707346,11.1530726 13.136519,9.80239589 13.136519,8.15156879 C13.1119503,7.15486705 12.5773615,6.24058802 11.7208097,5.73035571 C11.987168,5.36935452 12.1325037,4.93334756 12.1360178,4.48473163 C12.1360178,3.17407496 10.9054012,2.11354362 9.3846393,2.11354362 C9.2272444,2.11358699 9.070069,2.12529154 8.91440368,2.14856116 C8.26718951,0.810035823 6.89911565,-0.0283980175 5.41264922,0.00248593094 C3.40658106,-0.0708820487 1.71740925,1.48869722 1.63075441,3.49423537 C1.63314494,4.14098865 1.82630109,4.77266147 2.18603262,5.31014518 C1.01061663,5.64617715 0.18103905,6.69523035 0.125,7.91645099 C0.125,9.46222546 1.58072935,10.7178546 3.37662913,10.7178546 L3.47167676,10.7178546 C3.59673941,10.9379648 3.73180709,11.1680801 3.87187726,11.3981954 C4.40084249,12.2111943 4.83077041,13.0844854 5.15251889,13.9994987 L3.65176698,13.9994987 C3.37548619,13.9994987 3.15151635,14.2234686 3.15151635,14.4997494 C3.15151635,14.7760302 3.37548619,15 3.65176698,15 L9.6547746,15 C9.9310554,15 10.1550253,14.7760302 10.1550253,14.4997494 C10.1550253,14.2234686 9.9310554,13.9994987 9.6547746,13.9994987 L7.94891995,13.9994987 L7.94891995,13.419208 C8.24866808,12.7457281 8.61217265,12.1024758 9.0344638,11.4982455 Z M6.418153,6.95096727 L6.38813796,6.88593468 L6.46317556,6.88593468 L6.418153,6.95096727 Z M6.31810287,9.12705753 C6.5828784,9.75951154 7.04882712,10.2870007 7.64376706,10.6278094 C7.17162893,11.3031246 6.76777617,12.0236917 6.43816303,12.7788872 C6.10114332,12.0190467 5.71167529,11.2835706 5.27257905,10.5777844 L5.10749634,10.2926415 C5.61837049,10.0226887 6.04046705,9.61101427 6.32310538,9.10704751 L6.31810287,9.12705753 Z" id="Shape"></path>
            </g>
        </g>
    </g>
</svg>