<?xml version="1.0" encoding="UTF-8"?>
<svg width="35px" height="40px" viewBox="0 0 35 40" version="1.1" xmlns="http://www.w3.org/2000/svg" xmlns:xlink="http://www.w3.org/1999/xlink">
    <!-- Generator: Sketch 48.1 (47250) - http://www.bohemiancoding.com/sketch -->
    <title>pharmacy</title>
    <desc>Created with Sketch.</desc>
    <defs></defs>
    <g id="Page-1" stroke="none" stroke-width="1" fill="none" fill-rule="evenodd">
        <g id="pharmacy">
            <g id="Backing/Violet">
                <g id="Combined-Shape">
                    <g id="path-1-link" fill="#000000" fill-rule="nonzero">
                        <path d="M22.3835035,34.880747 L18.4721472,39.5665579 C17.9784185,40.1429832 17.1397664,40.1414843 16.6902363,39.5799464 L12.6489072,34.884156 C0.0855285177,34.7007641 2.51993271e-14,33.0095214 0,17.4531979 C-2.81117784e-14,0.106955195 0.247160721,0 17.5,0 C34.7528393,0 35,0.207884096 35,17.4531979 C35,32.9056961 34.9146186,34.6790391 22.3835131,34.8807468 L22.3835035,34.880747 Z" id="path-1"></path>
                    </g>
                    <g id="path-1-link" fill="#0955EC">
                        <path d="M22.3835035,34.880747 L18.4721472,39.5665579 C17.9784185,40.1429832 17.1397664,40.1414843 16.6902363,39.5799464 L12.6489072,34.884156 C0.0855285177,34.7007641 2.51993271e-14,33.0095214 0,17.4531979 C-2.81117784e-14,0.106955195 0.247160721,0 17.5,0 C34.7528393,0 35,0.207884096 35,17.4531979 C35,32.9056961 34.9146186,34.6790391 22.3835131,34.8807468 L22.3835035,34.880747 Z" id="path-1"></path>
                    </g>
                </g>
            </g>
            <g id="Icon/Pharmacy" transform="translate(10.000000, 10.000000)" fill="#FFFFFF" fill-rule="nonzero">
                <path d="M14.695,6.80501603 C14.6153591,6.61687485 14.4292659,6.49611224 14.225,6.50001603 L0.775,6.50001603 C0.570734143,6.49611224 0.384640931,6.61687485 0.305,6.80501603 C0.105932455,7.30463753 0.00247238675,7.83720247 0,8.37501603 C0,10.535016 1.62,12.405016 4,13.350016 L4,14.000016 C4,14.5523008 4.44771525,15.000016 5,15.000016 L10,15.000016 C10.5522847,15.000016 11,14.5523008 11,14.000016 L11,13.350016 C13.38,12.405016 15,10.535016 15,8.37501603 C14.9975276,7.83720247 14.8940675,7.30463753 14.695,6.80501603 Z M2.5,4.00001603 L2.6,4.00001603 L3,5.50001603 L6.5,5.50001603 L5.79,4.78001603 L4.175,3.08501603 C4.67136035,2.31640044 4.58284369,1.30895921 3.9600575,0.638675033 C3.33727131,-0.0316091433 2.33903923,-0.193799632 1.53607883,0.244832465 C0.733118431,0.683464563 0.330201586,1.61105879 0.557687273,2.49728325 C0.785172959,3.3835077 1.58504752,4.00235641 2.5,4.00001603 Z" id="Shape"></path>
            </g>
        </g>
    </g>
</svg>