<?xml version="1.0" encoding="UTF-8"?>
<svg width="35px" height="40px" viewBox="0 0 35 40" version="1.1" xmlns="http://www.w3.org/2000/svg" xmlns:xlink="http://www.w3.org/1999/xlink">
    <!-- Generator: Sketch 48.1 (47250) - http://www.bohemiancoding.com/sketch -->
    <title>religion</title>
    <desc>Created with Sketch.</desc>
    <defs></defs>
    <g id="Page-1" stroke="none" stroke-width="1" fill="none" fill-rule="evenodd">
        <g id="religion">
            <g id="Backing/Violet">
                <g id="Combined-Shape">
                    <g id="path-1-link" fill="#000000" fill-rule="nonzero">
                        <path d="M22.3835035,34.880747 L18.4721472,39.5665579 C17.9784185,40.1429832 17.1397664,40.1414843 16.6902363,39.5799464 L12.6489072,34.884156 C0.0855285177,34.7007641 2.51993271e-14,33.0095214 0,17.4531979 C-2.81117784e-14,0.106955195 0.247160721,0 17.5,0 C34.7528393,0 35,0.207884096 35,17.4531979 C35,32.9056961 34.9146186,34.6790391 22.3835131,34.8807468 L22.3835035,34.880747 Z" id="path-1"></path>
                    </g>
                    <g id="path-1-link" fill="#0955EC">
                        <path d="M22.3835035,34.880747 L18.4721472,39.5665579 C17.9784185,40.1429832 17.1397664,40.1414843 16.6902363,39.5799464 L12.6489072,34.884156 C0.0855285177,34.7007641 2.51993271e-14,33.0095214 0,17.4531979 C-2.81117784e-14,0.106955195 0.247160721,0 17.5,0 C34.7528393,0 35,0.207884096 35,17.4531979 C35,32.9056961 34.9146186,34.6790391 22.3835131,34.8807468 L22.3835035,34.880747 Z" id="path-1"></path>
                    </g>
                </g>
            </g>
            <g id="Icon/Religious" transform="translate(10.000000, 10.000000)" fill="#FFFFFF">
                <path d="M0.25477707,5.44585987 C0.414012739,5.35031847 0.636942675,5.31847134 0.828025478,5.38216561 C0.859872611,5.38216561 1.27388535,5.50955414 2.03821656,5.70063694 L2.03821656,15 L0.636942675,15 C0.286624204,15 0,14.7133758 0,14.3630573 L0,5.95541401 C0,5.76433121 0.0955414013,5.57324841 0.25477707,5.44585987 Z M6.87898089,12.2929936 L8.12101911,12.2929936 L8.12101911,15 L6.87898089,15 L6.87898089,12.2929936 Z M14.7133758,5.47770701 C14.8726115,5.57324841 14.9681529,5.76433121 15,5.95541401 L15,14.3630573 C15,14.7133758 14.7133758,15 14.3630573,15 L12.9617834,15 L12.9617834,5.70063694 C13.3757962,5.60509554 13.7579618,5.50955414 14.1719745,5.38216561 C14.3630573,5.31847134 14.5541401,5.35031847 14.7133758,5.47770701 Z M8.12101911,1.27388535 C10.1273885,1.49681529 11.6878981,3.21656051 11.7515924,5.2866242 L11.7515924,5.95541401 L11.7515924,15 L11.1146497,15 L9.39490446,15 L9.39490446,11.656051 C9.39490446,11.3057325 9.10828025,11.0191083 8.75796178,11.0191083 L6.27388535,11.0191083 C5.92356688,11.0191083 5.63694268,11.3057325 5.63694268,11.656051 L5.63694268,15 L3.91719745,15 L3.28025478,15 L3.28025478,5.95541401 L3.28025478,5.2866242 C3.28025478,3.21656051 4.84076433,1.49681529 6.84713376,1.27388535 L6.84713376,0.636942675 C6.84713376,0.286624204 7.13375796,0 7.48407643,0 C7.8343949,0 8.12101911,0.286624204 8.12101911,0.636942675 L8.12101911,1.27388535 Z M8.12101911,6.33757962 L8.12101911,5.15923567 C8.12101911,4.8089172 7.8343949,4.52229299 7.48407643,4.52229299 C7.13375796,4.52229299 6.84713376,4.8089172 6.84713376,5.15923567 L6.84713376,6.33757962 C6.84713376,6.68789809 7.13375796,6.97452229 7.48407643,6.97452229 C7.8343949,6.97452229 8.12101911,6.68789809 8.12101911,6.33757962 Z" id="Combined-Shape"></path>
            </g>
        </g>
    </g>
</svg>