<?xml version="1.0" encoding="UTF-8"?>
<svg width="35px" height="40px" viewBox="0 0 35 40" version="1.1" xmlns="http://www.w3.org/2000/svg" xmlns:xlink="http://www.w3.org/1999/xlink">
    <!-- Generator: Sketch 48.1 (47250) - http://www.bohemiancoding.com/sketch -->
    <title>restaurant</title>
    <desc>Created with Sketch.</desc>
    <defs></defs>
    <g id="Page-1" stroke="none" stroke-width="1" fill="none" fill-rule="evenodd">
        <g id="restaurant">
            <g id="Backing/Violet">
                <g id="Combined-Shape">
                    <g id="path-1-link" fill="#000000" fill-rule="nonzero">
                        <path d="M22.3835035,34.880747 L18.4721472,39.5665579 C17.9784185,40.1429832 17.1397664,40.1414843 16.6902363,39.5799464 L12.6489072,34.884156 C0.0855285177,34.7007641 2.51993271e-14,33.0095214 0,17.4531979 C-2.81117784e-14,0.106955195 0.247160721,0 17.5,0 C34.7528393,0 35,0.207884096 35,17.4531979 C35,32.9056961 34.9146186,34.6790391 22.3835131,34.8807468 L22.3835035,34.880747 Z" id="path-1"></path>
                    </g>
                    <g id="path-1-link" fill="#0955EC">
                        <path d="M22.3835035,34.880747 L18.4721472,39.5665579 C17.9784185,40.1429832 17.1397664,40.1414843 16.6902363,39.5799464 L12.6489072,34.884156 C0.0855285177,34.7007641 2.51993271e-14,33.0095214 0,17.4531979 C-2.81117784e-14,0.106955195 0.247160721,0 17.5,0 C34.7528393,0 35,0.207884096 35,17.4531979 C35,32.9056961 34.9146186,34.6790391 22.3835131,34.8807468 L22.3835035,34.880747 Z" id="path-1"></path>
                    </g>
                </g>
            </g>
            <g id="Icon/Restaurants" transform="translate(10.000000, 10.000000)" fill="#FFFFFF" fill-rule="nonzero">
                <path d="M2.99261074,7.69802455 C3.13916817,7.84222258 3.36349857,7.87512437 3.54599097,7.77918698 L4.87820265,6.46029757 C4.90416316,6.41301544 4.92643167,6.3638363 4.94481323,6.31319068 C4.67999299,5.46878221 4.77051637,4.55431137 5.19588389,3.7768649 C5.18098393,3.604796 5.10890905,3.44246536 4.99092825,3.31525361 L1.78849634,0.144846387 C1.70491663,0.0526616534 1.58569181,-1.77635684e-15 1.46056732,-1.77635684e-15 C1.33544282,-1.77635684e-15 1.216218,0.0526616534 1.13263829,0.144846387 C-0.322986192,1.93632105 -0.186196266,4.52462884 1.45031953,6.15593848 L2.99261074,7.69802455 Z M11.4624026,9.72708518 L11.4162876,9.69157662 C10.8972113,10.0194872 10.295029,10.1953457 9.67928856,10.1988418 C9.32198824,10.1985673 8.96715013,10.1403046 8.6288909,10.0263716 L8.06526288,10.5843633 C8.07697147,10.6074787 8.09068676,10.6295432 8.10625401,10.6503078 L12.3590836,14.8606086 C12.4485465,14.9498243 12.5702774,15 12.6972604,15 C12.8242434,15 12.9459743,14.9498243 13.0354372,14.8606086 L14.50087,13.4098302 C14.590987,13.3212619 14.6416695,13.2007483 14.6416695,13.0750352 C14.6416695,12.9493221 14.590987,12.8288085 14.50087,12.7402402 L11.4624026,9.72708518 Z M14.7980557,4.07107869 C14.5319753,3.80791211 14.1008447,3.80791211 13.8347642,4.07107869 L11.2728187,6.60740447 C11.0045565,6.85700533 10.5845514,6.85055863 10.3242341,6.59284457 C10.0639169,6.33513051 10.0574051,5.91932551 10.3095272,5.65374598 L12.8714727,3.1174202 C13.0807279,2.84937368 13.056749,2.46926502 12.8154321,2.22907689 C12.5741152,1.98888877 12.1903012,1.9631119 11.918429,2.16883436 L9.35648343,4.70516014 C9.09189274,4.97130719 8.65946543,4.97471384 8.39062998,4.7127691 C8.12179453,4.45082436 8.11835345,4.02272137 8.38294413,3.7565743 L10.9448897,1.22024852 C11.1467478,0.952761689 11.1206076,0.579332214 10.8834098,0.341967762 C10.646212,0.10460331 10.2693134,0.0747108285 9.99696981,0.271662676 L7.43502428,2.80798845 L6.78941401,3.43699725 L6.46660887,3.7565743 C5.80251035,4.41386292 5.61702408,5.40870109 6.00033479,6.25739151 C6.09293232,6.46223695 6.05255666,6.70206829 5.89785697,6.8661097 L0.133479533,12.5880607 C0.0480548419,12.6718863 -1.77635684e-15,12.7860262 -1.77635684e-15,12.9051014 C-1.77635684e-15,13.0241765 0.0480548419,13.1383165 0.133479533,13.2221421 L1.72188576,14.7895914 C1.80655813,14.8741619 1.92185098,14.9217362 2.04212895,14.9217362 C2.16240692,14.9217362 2.27769977,14.8741619 2.36237214,14.7895914 L8.11650179,9.08285843 C8.28488006,8.91917215 8.53843452,8.87666089 8.75186428,8.97633275 C9.60912743,9.35581031 10.6140146,9.17217892 11.2779426,8.51472146 L11.6007477,8.19514441 L12.2412341,7.56106296 L14.8031796,5.02473718 C15.0675945,4.7599199 15.0653012,4.33309628 14.7980557,4.07107869 Z" id="Shape"></path>
            </g>
        </g>
    </g>
</svg>