<?xml version="1.0" encoding="UTF-8"?>
<svg width="35px" height="40px" viewBox="0 0 35 40" version="1.1" xmlns="http://www.w3.org/2000/svg" xmlns:xlink="http://www.w3.org/1999/xlink">
    <!-- Generator: Sketch 48.1 (47250) - http://www.bohemiancoding.com/sketch -->
    <title>sports</title>
    <desc>Created with Sketch.</desc>
    <defs></defs>
    <g id="Page-1" stroke="none" stroke-width="1" fill="none" fill-rule="evenodd">
        <g id="sports">
            <g id="Backing/Violet">
                <g id="Combined-Shape">
                    <g id="path-1-link" fill="#000000" fill-rule="nonzero">
                        <path d="M22.3835035,34.880747 L18.4721472,39.5665579 C17.9784185,40.1429832 17.1397664,40.1414843 16.6902363,39.5799464 L12.6489072,34.884156 C0.0855285177,34.7007641 2.51993271e-14,33.0095214 0,17.4531979 C-2.81117784e-14,0.106955195 0.247160721,0 17.5,0 C34.7528393,0 35,0.207884096 35,17.4531979 C35,32.9056961 34.9146186,34.6790391 22.3835131,34.8807468 L22.3835035,34.880747 Z" id="path-1"></path>
                    </g>
                    <g id="path-1-link" fill="#0955EC">
                        <path d="M22.3835035,34.880747 L18.4721472,39.5665579 C17.9784185,40.1429832 17.1397664,40.1414843 16.6902363,39.5799464 L12.6489072,34.884156 C0.0855285177,34.7007641 2.51993271e-14,33.0095214 0,17.4531979 C-2.81117784e-14,0.106955195 0.247160721,0 17.5,0 C34.7528393,0 35,0.207884096 35,17.4531979 C35,32.9056961 34.9146186,34.6790391 22.3835131,34.8807468 L22.3835035,34.880747 Z" id="path-1"></path>
                    </g>
                </g>
            </g>
            <g id="Icon/Sports" transform="translate(10.000000, 10.000000)" fill="#FFFFFF" fill-rule="nonzero">
                <path d="M7.94722413,8.9 C8.20884853,8.6131842 8.45424177,8.3127405 8.68231666,8 C9.73584432,8.97614817 11.2202246,9.37741408 12.6405072,9.07 C13.0004664,8.99676055 13.2929116,8.74229757 13.4076815,8.40246479 C13.5224515,8.06263201 13.4421099,7.68905812 13.1969207,7.42246479 C12.9517315,7.15587146 12.5789448,7.03676055 12.2189856,7.11 C10.7950651,7.4 10.1113777,6.535 9.56648389,6.055 C8.29350257,4.92526081 6.55722527,4.4274648 4.8577793,4.705 C3.95591749,4.85442483 3.08676544,5.15200395 2.2875257,5.585 C1.80063315,5.87218808 1.64528303,6.48891582 1.94054149,6.96249999 C2.23579995,7.43608415 2.86985863,7.58718805 3.3567512,7.3 C3.96358426,6.9804643 4.62275186,6.76561972 5.30500343,6.665 C5.26387937,6.81 5.13536669,7.225 4.95544894,7.795 C3.97875257,10.585 4.13810829,10.575 1.02810144,10.575 C0.460296693,10.575 -1.68639758e-13,11.0227153 -1.687539e-13,11.575 C-1.68868042e-13,12.1272847 0.460296693,12.575 1.02810144,12.575 C2.05620288,12.575 4.91432488,12.85 6.68265936,10.495 C7.82385195,11.61 7.7107608,11.815 7.7107608,13.995 C7.7107608,14.5472847 8.17105749,14.995 8.73886223,14.995 C9.30666698,14.995 9.76696367,14.5472847 9.76696367,13.995 C9.76182317,11.365 9.80808773,10.72 7.94722413,8.9 Z M9.15884167,4.5 C10.4014824,4.5 11.4088417,3.49264069 11.4088417,2.25 C11.4088417,1.00735931 10.4014824,-1.66533454e-15 9.15884167,-1.77635684e-15 C7.91620099,-1.88737914e-15 6.90884167,1.00735931 6.90884167,2.25 C6.90884167,3.49264069 7.91620099,4.5 9.15884167,4.5 Z M13.2008225,11.5 C12.2071642,11.5 11.401645,12.2835017 11.401645,13.25 C11.401645,14.2164983 12.2071642,15 13.2008225,15 C14.1944808,15 15,14.2164983 15,13.25 C15,12.7858711 14.8104443,12.3407518 14.4730331,12.0125631 C14.1356219,11.6843745 13.677994,11.5 13.2008225,11.5 Z" id="Shape"></path>
            </g>
        </g>
    </g>
</svg>